<?xml version="1.0" encoding="utf-8" standalone="no"?>
<!DOCTYPE svg PUBLIC "-//W3C//DTD SVG 1.1//EN"
  "http://www.w3.org/Graphics/SVG/1.1/DTD/svg11.dtd">
<svg xmlns:xlink="http://www.w3.org/1999/xlink" width="1340.64pt" height="781.2pt" viewBox="0 0 1340.64 781.2" xmlns="http://www.w3.org/2000/svg" version="1.1">
 <metadata>
  <rdf:RDF xmlns:dc="http://purl.org/dc/elements/1.1/" xmlns:cc="http://creativecommons.org/ns#" xmlns:rdf="http://www.w3.org/1999/02/22-rdf-syntax-ns#">
   <cc:Work>
    <dc:type rdf:resource="http://purl.org/dc/dcmitype/StillImage"/>
    <dc:date>2025-02-17T01:27:32.120258</dc:date>
    <dc:format>image/svg+xml</dc:format>
    <dc:creator>
     <cc:Agent>
      <dc:title>Matplotlib v3.6.3, https://matplotlib.org/</dc:title>
     </cc:Agent>
    </dc:creator>
   </cc:Work>
  </rdf:RDF>
 </metadata>
 <defs>
  <style type="text/css">*{stroke-linejoin: round; stroke-linecap: butt}</style>
 </defs>
 <g id="figure_1">
  <g id="patch_1">
   <path d="M 0 781.2 
L 1340.64 781.2 
L 1340.64 0 
L 0 0 
z
" style="fill: #ffffff"/>
  </g>
  <g id="axes_1">
   <g id="patch_2">
    <path d="M 167.58 695.268 
L 1206.576 695.268 
L 1206.576 93.744 
L 167.58 93.744 
z
" style="fill: #ffffff"/>
   </g>
   <g id="matplotlib.axis_1">
    <g id="xtick_1"/>
    <g id="xtick_2"/>
    <g id="xtick_3"/>
    <g id="xtick_4"/>
    <g id="xtick_5"/>
    <g id="xtick_6"/>
    <g id="xtick_7"/>
   </g>
   <g id="matplotlib.axis_2">
    <g id="ytick_1"/>
    <g id="ytick_2"/>
    <g id="ytick_3"/>
    <g id="ytick_4"/>
    <g id="ytick_5"/>
    <g id="ytick_6"/>
    <g id="ytick_7"/>
   </g>
   <g id="line2d_1">
    <path d="M 200.194224 595.014 
L 200.194224 93.744 
" clip-path="url(#p42154da52f)" style="fill: none; stroke: #000000; stroke-width: 1.5; stroke-linecap: square"/>
   </g>
   <g id="line2d_2">
    <path d="M 256.104323 645.141 
L 256.104323 93.744 
" clip-path="url(#p42154da52f)" style="fill: none; stroke-dasharray: 1,1.65; stroke-dashoffset: 0; stroke: #000000"/>
   </g>
   <g id="line2d_3">
    <path d="M 400.538744 645.141 
L 400.538744 93.744 
" clip-path="url(#p42154da52f)" style="fill: none; stroke-dasharray: 1,1.65; stroke-dashoffset: 0; stroke: #000000"/>
   </g>
   <g id="line2d_4">
    <path d="M 540.313991 645.141 
L 540.313991 93.744 
" clip-path="url(#p42154da52f)" style="fill: none; stroke-dasharray: 1,1.65; stroke-dashoffset: 0; stroke: #000000"/>
   </g>
   <g id="line2d_5">
    <path d="M 684.748413 645.141 
L 684.748413 93.744 
" clip-path="url(#p42154da52f)" style="fill: none; stroke-dasharray: 1,1.65; stroke-dashoffset: 0; stroke: #000000"/>
   </g>
   <g id="line2d_6">
    <path d="M 824.523659 645.141 
L 824.523659 93.744 
" clip-path="url(#p42154da52f)" style="fill: none; stroke-dasharray: 1,1.65; stroke-dashoffset: 0; stroke: #000000"/>
   </g>
   <g id="line2d_7">
    <path d="M 968.958081 645.141 
L 968.958081 93.744 
" clip-path="url(#p42154da52f)" style="fill: none; stroke-dasharray: 1,1.65; stroke-dashoffset: 0; stroke: #000000"/>
   </g>
   <g id="patch_3">
    <path d="M 167.58 595.014 
L 1206.576 595.014 
" style="fill: none; stroke: #000000; stroke-width: 1.5; stroke-linejoin: miter; stroke-linecap: square"/>
   </g>
   <g id="patch_4">
    <path d="M 968.958081 551.175304 
Q 1036.847269 551.175304 1104.736458 551.175304 
L 1104.736458 549.425304 
Q 1106.734893 550.425304 1108.733327 551.425304 
Q 1106.734893 552.425304 1104.736458 553.425304 
L 1104.736458 551.675304 
Q 1036.847269 551.675304 968.958081 551.675304 
L 968.958081 551.175304 
z
" style="stroke: #000000; stroke-linecap: round"/>
   </g>
   <g id="text_1">
    <g id="patch_5">
     <path d="M 930.845704 536.670957 
L 1146.845704 536.670957 
L 1146.845704 513.530957 
L 930.845704 513.530957 
z
" style="fill: #ffffff; stroke: #ffffff; stroke-linejoin: miter"/>
    </g>
    <!-- ジョブ切替戦略の有効性評価 -->
    <g transform="translate(934.845704 529.630957) scale(0.16 -0.16)">
     <defs>
      <path id="IPAexGothic-30b8" d="M 2759 3481 
Q 2150 4006 1544 4309 
L 1844 4731 
Q 2434 4441 3100 3931 
L 2759 3481 
z
M 1094 447 
Q 3875 1041 5269 3475 
L 5619 3078 
Q 4228 650 1416 -50 
L 1094 447 
z
M 2003 2228 
Q 1397 2747 763 3059 
L 1063 3488 
Q 1738 3159 2338 2675 
L 2003 2228 
z
M 5594 4219 
Q 5234 4759 4841 5088 
L 5141 5319 
Q 5525 5009 5916 4494 
L 5594 4219 
z
M 5000 3750 
Q 4709 4241 4263 4641 
L 4578 4884 
Q 4947 4575 5331 4025 
L 5000 3750 
z
" transform="scale(0.015625)"/>
      <path id="IPAexGothic-30e7" d="M 1625 3469 
L 4653 3469 
L 4653 0 
L 4172 0 
L 4172 294 
L 1553 294 
L 1553 753 
L 4172 753 
L 4172 1734 
L 1766 1734 
L 1766 2169 
L 4172 2169 
L 4172 3028 
L 1625 3028 
L 1625 3469 
z
" transform="scale(0.015625)"/>
      <path id="IPAexGothic-30d6" d="M 4806 4250 
L 5106 3975 
Q 4866 2353 4063 1356 
Q 3275 384 1869 -141 
L 1503 306 
Q 4050 1084 4531 3775 
L 947 3713 
L 947 4197 
L 4806 4250 
z
M 6047 4475 
Q 5688 5016 5294 5344 
L 5594 5575 
Q 5978 5266 6369 4750 
L 6047 4475 
z
M 5453 4006 
Q 5163 4497 4716 4897 
L 5031 5141 
Q 5400 4831 5784 4281 
L 5453 4006 
z
" transform="scale(0.015625)"/>
      <path id="IPAexGothic-5207" d="M 4197 4281 
Q 4197 2691 4025 1778 
Q 3747 344 2456 -447 
L 2119 -72 
Q 3397 631 3616 2150 
Q 3731 2975 3731 4281 
L 2700 4281 
L 2700 4709 
L 5816 4709 
Q 5816 1153 5638 331 
Q 5513 -238 4825 -238 
Q 4409 -238 4038 -194 
L 3941 325 
Q 4419 238 4734 238 
Q 5119 238 5197 622 
Q 5325 1322 5344 3922 
L 5344 4281 
L 4197 4281 
z
M 1525 3206 
L 1525 1528 
Q 1525 1378 1575 1334 
Q 1638 1291 1872 1291 
Q 2316 1291 2381 1444 
Q 2434 1556 2453 2216 
L 2925 2047 
Q 2897 1272 2772 1081 
Q 2619 850 1825 850 
Q 1341 850 1197 966 
Q 1056 1069 1056 1338 
L 1056 3150 
L 319 3059 
L 269 3500 
L 1056 3591 
L 1056 5075 
L 1525 5075 
L 1525 3641 
L 2959 3809 
L 2991 3378 
L 1525 3206 
z
" transform="scale(0.015625)"/>
      <path id="IPAexGothic-66ff" d="M 3350 2266 
L 5241 2266 
L 5241 -447 
L 4772 -447 
L 4772 -128 
L 1609 -128 
L 1609 -447 
L 1150 -447 
L 1150 2266 
L 3344 2266 
L 3075 2606 
Q 3969 2834 4172 3475 
L 3275 3475 
L 3275 3841 
L 4222 3841 
L 4222 4319 
L 3313 4319 
L 3313 4678 
L 4222 4678 
L 4222 5313 
L 4650 5313 
L 4650 4678 
L 5816 4678 
L 5816 4319 
L 4650 4319 
L 4650 3841 
L 5984 3841 
L 5984 3475 
L 4816 3475 
Q 5209 2919 6078 2547 
L 5766 2169 
Q 4913 2644 4516 3278 
Q 4256 2594 3350 2266 
z
M 4772 1881 
L 1609 1881 
L 1609 1281 
L 4772 1281 
L 4772 1881 
z
M 1609 909 
L 1609 256 
L 4772 256 
L 4772 909 
L 1609 909 
z
M 1700 4678 
L 1700 5313 
L 2134 5313 
L 2134 4678 
L 3038 4678 
L 3038 4319 
L 2134 4319 
L 2134 3841 
L 3081 3841 
L 3081 3475 
L 2078 3475 
Q 2050 3372 2031 3316 
Q 2666 3034 3069 2803 
L 2744 2450 
Q 2325 2769 1878 2994 
Q 1522 2400 619 2041 
L 319 2394 
Q 1428 2731 1650 3475 
L 413 3475 
L 413 3841 
L 1700 3841 
L 1700 4319 
L 575 4319 
L 575 4678 
L 1700 4678 
z
" transform="scale(0.015625)"/>
      <path id="IPAexGothic-6226" d="M 3281 1716 
L 2116 1716 
L 2116 1113 
L 3513 1113 
L 3513 722 
L 2116 722 
L 2116 -450 
L 1694 -450 
L 1694 722 
L 313 722 
L 313 1113 
L 1694 1113 
L 1694 1716 
L 556 1716 
L 556 3950 
L 2256 3950 
Q 2541 4472 2788 5256 
L 3250 5084 
Q 2994 4453 2678 3950 
L 3281 3950 
L 3281 3431 
L 3966 3481 
Q 3966 3584 3959 3669 
Q 3931 4294 3922 5238 
L 4356 5238 
Q 4366 4078 4400 3513 
L 6047 3628 
L 6059 3225 
L 4425 3100 
Q 4475 2191 4650 1563 
Q 5050 2175 5303 2863 
L 5694 2688 
Q 5347 1772 4822 1069 
Q 4994 659 5156 459 
Q 5334 222 5419 222 
Q 5581 222 5669 1241 
L 6091 966 
Q 5888 -359 5522 -359 
Q 5044 -359 4516 684 
Q 3953 13 3269 -481 
L 2947 -128 
Q 3744 381 4331 1119 
Q 4056 1881 3991 3066 
L 3281 3009 
L 3281 1716 
z
M 2884 2088 
L 2884 2675 
L 2097 2675 
L 2097 2088 
L 2884 2088 
z
M 2884 3028 
L 2884 3578 
L 2097 3578 
L 2097 3028 
L 2884 3028 
z
M 953 3578 
L 953 3028 
L 1713 3028 
L 1713 3578 
L 953 3578 
z
M 953 2675 
L 953 2088 
L 1713 2088 
L 1713 2675 
L 953 2675 
z
M 850 4084 
Q 697 4578 453 4959 
L 819 5141 
Q 1109 4653 1247 4256 
L 850 4084 
z
M 1725 4153 
Q 1591 4697 1381 5106 
L 1766 5253 
Q 1966 4884 2128 4319 
L 1725 4153 
z
M 5309 3853 
Q 5003 4528 4747 4903 
L 5094 5088 
Q 5475 4566 5694 4078 
L 5309 3853 
z
" transform="scale(0.015625)"/>
      <path id="IPAexGothic-7565" d="M 5591 1947 
L 5591 -447 
L 5163 -447 
L 5163 -122 
L 3594 -122 
L 3594 -447 
L 3166 -447 
L 3166 1800 
Q 2913 1656 2794 1600 
L 2531 1966 
Q 3503 2369 4169 3053 
Q 3784 3481 3575 3834 
Q 3269 3350 2853 2963 
L 2578 3278 
Q 3428 4113 3728 5300 
L 4156 5191 
Q 4094 4959 4034 4800 
L 5388 4800 
L 5634 4606 
Q 5256 3728 4728 3078 
Q 5359 2559 6184 2234 
L 5909 1813 
Q 5038 2244 4453 2772 
Q 4009 2328 3422 1947 
L 5591 1947 
z
M 3594 1563 
L 3594 263 
L 5163 263 
L 5163 1563 
L 3594 1563 
z
M 4438 3347 
Q 4822 3806 5084 4422 
L 3888 4422 
Q 3878 4391 3844 4322 
Q 3803 4241 3784 4203 
Q 4050 3744 4438 3347 
z
M 2516 4825 
L 2516 525 
L 850 525 
L 850 78 
L 459 78 
L 459 4825 
L 2516 4825 
z
M 850 4441 
L 850 2913 
L 1291 2913 
L 1291 4441 
L 850 4441 
z
M 850 2534 
L 850 909 
L 1291 909 
L 1291 2534 
L 850 2534 
z
M 2131 909 
L 2131 2534 
L 1650 2534 
L 1650 909 
L 2131 909 
z
M 2131 2913 
L 2131 4441 
L 1650 4441 
L 1650 2913 
L 2131 2913 
z
" transform="scale(0.015625)"/>
      <path id="IPAexGothic-306e" d="M 3119 469 
Q 5275 766 5275 2425 
Q 5275 3453 4413 3925 
Q 4041 4116 3547 4159 
Q 3394 2525 2850 1400 
Q 2322 306 1722 306 
Q 1384 306 1084 666 
Q 609 1244 609 2003 
Q 609 3025 1397 3794 
Q 2184 4563 3431 4563 
Q 4306 4563 4928 4122 
Q 5813 3506 5813 2425 
Q 5813 438 3431 6 
L 3119 469 
z
M 3053 4147 
Q 2378 4044 1891 3641 
Q 1097 2981 1097 1991 
Q 1097 1366 1434 978 
Q 1581 813 1719 813 
Q 2022 813 2416 1625 
Q 2909 2638 3053 4147 
z
" transform="scale(0.015625)"/>
      <path id="IPAexGothic-6709" d="M 2353 3334 
L 5197 3334 
L 5197 103 
Q 5197 -178 5088 -288 
Q 4966 -409 4584 -409 
Q 4113 -409 3684 -366 
L 3634 109 
Q 4109 13 4513 13 
Q 4750 13 4750 250 
L 4750 941 
L 2238 941 
L 2238 -447 
L 1784 -447 
L 1784 2438 
Q 1241 1734 581 1247 
L 288 1613 
Q 1616 2578 2163 3988 
L 509 3988 
L 509 4391 
L 2309 4391 
Q 2453 4866 2538 5300 
L 2988 5256 
Q 2884 4778 2769 4391 
L 5953 4391 
L 5953 3988 
L 2634 3988 
Q 2516 3650 2353 3334 
z
M 2238 2950 
L 2238 2328 
L 4750 2328 
L 4750 2950 
L 2238 2950 
z
M 2238 1950 
L 2238 1313 
L 4750 1313 
L 4750 1950 
L 2238 1950 
z
" transform="scale(0.015625)"/>
      <path id="IPAexGothic-52b9" d="M 4078 3828 
L 4078 5203 
L 4525 5203 
L 4525 3884 
L 5894 3884 
Q 5884 1113 5728 238 
Q 5631 -331 5069 -331 
Q 4684 -331 4294 -275 
L 4219 231 
Q 4603 122 4922 122 
Q 5222 122 5281 434 
Q 5431 1328 5441 3194 
L 5447 3463 
L 4519 3463 
Q 4519 2075 4294 1288 
Q 3978 159 3034 -481 
L 2706 -141 
Q 3628 491 3906 1556 
Q 4050 2141 4078 3328 
L 4078 3413 
L 3266 3413 
L 3266 3816 
L 422 3816 
L 422 4219 
L 1716 4219 
L 1716 5313 
L 2156 5313 
L 2156 4219 
L 3316 4219 
L 3316 3828 
L 4078 3828 
z
M 1813 1216 
Q 1356 1728 972 2081 
L 1281 2350 
Q 1603 2059 1997 1644 
L 2022 1613 
Q 2197 1994 2309 2547 
L 2706 2406 
Q 2566 1769 2322 1288 
Q 2738 828 3000 500 
L 2681 147 
Q 2341 600 2100 884 
Q 1538 25 756 -447 
L 447 -91 
Q 1294 353 1813 1216 
z
M 269 2350 
Q 906 2888 1253 3622 
L 1631 3431 
Q 1203 2613 550 2016 
L 269 2350 
z
M 3144 2209 
Q 2694 2950 2156 3450 
L 2503 3659 
Q 3069 3153 3463 2547 
L 3144 2209 
z
" transform="scale(0.015625)"/>
      <path id="IPAexGothic-6027" d="M 3106 3788 
L 3900 3788 
L 3900 5216 
L 4353 5216 
L 4353 3788 
L 5884 3788 
L 5884 3372 
L 4353 3372 
L 4353 2069 
L 5756 2069 
L 5756 1653 
L 4353 1653 
L 4353 153 
L 6081 153 
L 6081 -269 
L 2231 -269 
L 2231 153 
L 3900 153 
L 3900 1653 
L 2606 1653 
L 2606 2069 
L 3900 2069 
L 3900 3372 
L 2984 3372 
Q 2806 2803 2544 2325 
L 2147 2613 
Q 2638 3428 2875 4875 
L 3313 4778 
Q 3234 4309 3106 3788 
z
M 269 2188 
Q 459 2891 525 3950 
L 934 3884 
Q 884 2694 672 1931 
L 269 2188 
z
M 1997 3047 
Q 1872 3591 1650 4078 
L 1984 4256 
Q 2216 3844 2394 3291 
L 1997 3047 
z
M 1159 5313 
L 1613 5313 
L 1613 -447 
L 1159 -447 
L 1159 5313 
z
" transform="scale(0.015625)"/>
      <path id="IPAexGothic-8a55" d="M 2272 1684 
L 2272 -416 
L 1863 -416 
L 1863 -128 
L 919 -128 
L 919 -447 
L 509 -447 
L 509 1684 
L 2272 1684 
z
M 919 1313 
L 919 244 
L 1863 244 
L 1863 1313 
L 919 1313 
z
M 4466 4434 
L 4466 1931 
L 6097 1931 
L 6097 1516 
L 4466 1516 
L 4466 -450 
L 4013 -450 
L 4013 1516 
L 2419 1516 
L 2419 1931 
L 4013 1931 
L 4013 4434 
L 2553 4434 
L 2553 4856 
L 5931 4856 
L 5931 4434 
L 4466 4434 
z
M 594 5044 
L 2188 5044 
L 2188 4659 
L 594 4659 
L 594 5044 
z
M 325 4206 
L 2413 4206 
L 2413 3816 
L 325 3816 
L 325 4206 
z
M 594 3359 
L 2188 3359 
L 2188 2975 
L 594 2975 
L 594 3359 
z
M 594 2522 
L 2188 2522 
L 2188 2138 
L 594 2138 
L 594 2522 
z
M 3184 2253 
Q 3031 3206 2775 3988 
L 3200 4122 
Q 3463 3331 3634 2381 
L 3184 2253 
z
M 4825 2356 
Q 5097 3272 5253 4184 
L 5700 4050 
Q 5491 2994 5228 2247 
L 4825 2356 
z
" transform="scale(0.015625)"/>
      <path id="IPAexGothic-4fa1" d="M 3144 3397 
L 3144 4416 
L 1828 4416 
L 1828 4825 
L 6081 4825 
L 6081 4416 
L 4713 4416 
L 4713 3397 
L 5850 3397 
L 5850 -384 
L 5416 -384 
L 5416 0 
L 2463 0 
L 2463 -384 
L 2034 -384 
L 2034 3397 
L 3144 3397 
z
M 3572 3397 
L 4281 3397 
L 4281 4416 
L 3572 4416 
L 3572 3397 
z
M 3169 3013 
L 2463 3013 
L 2463 391 
L 3169 391 
L 3169 3013 
z
M 3572 3013 
L 3572 391 
L 4281 391 
L 4281 3013 
L 3572 3013 
z
M 4684 3013 
L 4684 391 
L 5416 391 
L 5416 3013 
L 4684 3013 
z
M 1394 3816 
L 1394 -447 
L 966 -447 
L 966 2797 
Q 756 2369 478 1972 
L 244 2369 
Q 950 3469 1375 5313 
L 1809 5203 
Q 1588 4344 1394 3816 
z
" transform="scale(0.015625)"/>
     </defs>
     <use xlink:href="#IPAexGothic-30b8"/>
     <use xlink:href="#IPAexGothic-30e7" x="100"/>
     <use xlink:href="#IPAexGothic-30d6" x="200"/>
     <use xlink:href="#IPAexGothic-5207" x="300"/>
     <use xlink:href="#IPAexGothic-66ff" x="400"/>
     <use xlink:href="#IPAexGothic-6226" x="500"/>
     <use xlink:href="#IPAexGothic-7565" x="600"/>
     <use xlink:href="#IPAexGothic-306e" x="700"/>
     <use xlink:href="#IPAexGothic-6709" x="800"/>
     <use xlink:href="#IPAexGothic-52b9" x="900"/>
     <use xlink:href="#IPAexGothic-6027" x="1000"/>
     <use xlink:href="#IPAexGothic-8a55" x="1100"/>
     <use xlink:href="#IPAexGothic-4fa1" x="1200"/>
    </g>
   </g>
   <g id="patch_6">
    <path d="M 824.523659 485.792261 
Q 892.412848 485.792261 960.302037 485.792261 
L 960.302037 484.042261 
Q 962.300471 485.042261 964.298906 486.042261 
Q 962.300471 487.042261 960.302037 488.042261 
L 960.302037 486.292261 
Q 892.412848 486.292261 824.523659 486.292261 
L 824.523659 485.792261 
z
" style="stroke: #000000; stroke-linecap: round"/>
   </g>
   <g id="text_2">
    <g id="patch_7">
     <path d="M 810.411283 471.287913 
L 978.411283 471.287913 
L 978.411283 448.147913 
L 810.411283 448.147913 
z
" style="fill: #ffffff; stroke: #ffffff; stroke-linejoin: miter"/>
    </g>
    <!-- ジョブ切替戦略の考案 -->
    <g transform="translate(814.411283 464.247913) scale(0.16 -0.16)">
     <defs>
      <path id="IPAexGothic-8003" d="M 3613 3378 
Q 4419 4028 5169 4922 
L 5566 4672 
Q 4963 3969 4316 3438 
L 6038 3438 
L 6038 3028 
L 3803 3028 
Q 3219 2597 2738 2291 
Q 2728 2247 2719 2188 
Q 4069 2347 4969 2622 
L 5341 2213 
Q 4141 1950 2641 1822 
L 2566 1491 
L 5372 1491 
Q 5269 372 5066 -69 
Q 4891 -447 4328 -447 
Q 3728 -447 3209 -403 
L 3100 97 
Q 3744 -6 4241 -6 
Q 4566 -6 4650 231 
Q 4756 519 4841 1100 
L 2463 1100 
Q 2384 834 2284 569 
L 1863 734 
Q 2091 1375 2225 1978 
Q 1334 1463 434 1075 
L 184 1484 
Q 1713 2050 3069 2975 
L 344 2975 
L 344 3378 
L 2713 3378 
L 2713 4116 
L 1125 4116 
L 1125 4513 
L 2750 4513 
L 2750 5313 
L 3203 5313 
L 3203 4513 
L 4350 4513 
L 4350 4116 
L 3166 4116 
L 3166 3378 
L 3613 3378 
z
" transform="scale(0.015625)"/>
      <path id="IPAexGothic-6848" d="M 3394 1184 
L 3394 -447 
L 2966 -447 
L 2966 1141 
Q 2163 138 622 -325 
L 334 41 
Q 1788 453 2600 1275 
L 391 1275 
L 391 1659 
L 2966 1659 
L 2966 2141 
L 3394 2141 
L 3394 1659 
L 6003 1659 
L 6003 1275 
L 3797 1275 
Q 4603 641 6044 219 
L 5728 -197 
Q 4234 331 3394 1184 
z
M 4469 3359 
Q 4150 2903 3819 2675 
Q 3891 2656 4013 2628 
Q 4166 2594 4194 2584 
Q 4544 2497 5538 2241 
L 5159 1919 
Q 4059 2247 3409 2413 
Q 2563 2013 1025 1906 
L 800 2266 
Q 2184 2303 2856 2547 
L 2594 2603 
Q 2128 2709 1722 2797 
L 1544 2828 
Q 1850 3081 2141 3359 
L 909 3359 
L 909 3663 
L 578 3663 
L 578 4659 
L 2941 4659 
L 2941 5313 
L 3422 5313 
L 3422 4659 
L 5819 4659 
L 5819 3663 
L 5478 3663 
L 5478 3359 
L 4469 3359 
z
M 3966 3359 
L 2678 3359 
Q 2509 3181 2306 3000 
Q 3178 2813 3338 2784 
Q 3719 3034 3966 3359 
z
M 1044 4288 
L 1044 3706 
L 2466 3706 
Q 2669 3944 2869 4250 
L 3300 4147 
Q 3066 3816 2978 3706 
L 5350 3706 
L 5350 4288 
L 1044 4288 
z
" transform="scale(0.015625)"/>
     </defs>
     <use xlink:href="#IPAexGothic-30b8"/>
     <use xlink:href="#IPAexGothic-30e7" x="100"/>
     <use xlink:href="#IPAexGothic-30d6" x="200"/>
     <use xlink:href="#IPAexGothic-5207" x="300"/>
     <use xlink:href="#IPAexGothic-66ff" x="400"/>
     <use xlink:href="#IPAexGothic-6226" x="500"/>
     <use xlink:href="#IPAexGothic-7565" x="600"/>
     <use xlink:href="#IPAexGothic-306e" x="700"/>
     <use xlink:href="#IPAexGothic-8003" x="800"/>
     <use xlink:href="#IPAexGothic-6848" x="900"/>
    </g>
   </g>
   <g id="patch_8">
    <path d="M 684.748413 420.409217 
Q 750.30453 420.409217 815.860648 420.409217 
L 815.860648 418.659217 
Q 817.862566 419.659217 819.864484 420.659217 
Q 817.862566 421.659217 815.860648 422.659217 
L 815.860648 420.909217 
Q 750.30453 420.909217 684.748413 420.909217 
L 684.748413 420.409217 
z
" style="stroke: #000000; stroke-linecap: round"/>
   </g>
   <g id="text_3">
    <g id="patch_9">
     <path d="M 561.976861 405.90487 
L 937.976861 405.90487 
L 937.976861 382.68487 
L 561.976861 382.68487 
z
" style="fill: #ffffff; stroke: #ffffff; stroke-linejoin: miter"/>
    </g>
    <!-- 低レイヤ情報とジョブ状態の関係性についての調査 -->
    <g transform="translate(565.976861 398.86487) scale(0.16 -0.16)">
     <defs>
      <path id="IPAexGothic-4f4e" d="M 1575 3681 
L 1575 -447 
L 1122 -447 
L 1122 2853 
Q 763 2303 438 1913 
L 206 2316 
Q 1213 3534 1684 5228 
L 2119 5094 
Q 1872 4281 1575 3681 
z
M 2350 4684 
L 2516 4697 
Q 3934 4794 5113 5144 
L 5484 4741 
Q 4925 4600 4378 4503 
Q 4388 3869 4434 3166 
L 4434 3122 
L 5894 3122 
L 5894 2713 
L 4472 2713 
Q 4569 1709 4959 884 
Q 5256 263 5400 263 
Q 5516 263 5594 1131 
L 6028 813 
Q 5903 -372 5550 -372 
Q 5150 -372 4672 459 
Q 4150 1359 4025 2663 
L 2797 2663 
L 2797 997 
Q 3581 1247 4069 1453 
L 4134 1056 
Q 3156 619 2069 294 
L 1881 750 
Q 2241 838 2350 872 
L 2350 4684 
z
M 3916 4428 
Q 3316 4341 2797 4313 
L 2797 3066 
L 3988 3066 
Q 3934 3694 3916 4428 
z
M 2375 128 
L 4666 128 
L 4666 -288 
L 2375 -288 
L 2375 128 
z
" transform="scale(0.015625)"/>
      <path id="IPAexGothic-30ec" d="M 1538 4706 
L 2075 4706 
L 2075 622 
Q 4059 1375 5172 2894 
L 5481 2431 
Q 4922 1678 3931 1019 
Q 2919 334 1928 -31 
L 1538 269 
L 1538 4706 
z
" transform="scale(0.015625)"/>
      <path id="IPAexGothic-30a4" d="M 3131 -231 
L 3131 2875 
Q 2091 2088 1106 1656 
L 781 2059 
Q 3016 3000 4469 4916 
L 4916 4641 
Q 4384 3938 3675 3316 
L 3675 -231 
L 3131 -231 
z
" transform="scale(0.015625)"/>
      <path id="IPAexGothic-30e4" d="M 2444 4897 
L 2744 3494 
L 5303 3928 
L 5681 3641 
Q 5138 2506 4363 1625 
L 3909 1906 
Q 4591 2647 4978 3413 
L 2847 3022 
L 3525 -134 
L 3013 -250 
L 2341 2931 
L 709 2631 
L 594 3122 
L 2238 3406 
L 1944 4800 
L 2444 4897 
z
" transform="scale(0.015625)"/>
      <path id="IPAexGothic-60c5" d="M 3791 4672 
L 3791 5313 
L 4219 5313 
L 4219 4672 
L 5844 4672 
L 5844 4325 
L 4219 4325 
L 4219 3944 
L 5659 3944 
L 5659 3603 
L 4219 3603 
L 4219 3200 
L 6050 3200 
L 6050 2841 
L 2038 2841 
L 2038 3200 
L 3791 3200 
L 3791 3603 
L 2447 3603 
L 2447 3944 
L 3791 3944 
L 3791 4325 
L 2228 4325 
L 2228 4672 
L 3791 4672 
z
M 5491 2478 
L 5491 38 
Q 5491 -403 4966 -403 
Q 4741 -403 4134 -372 
L 4063 84 
Q 4484 19 4863 19 
Q 5063 19 5063 206 
L 5063 634 
L 3066 634 
L 3066 -447 
L 2638 -447 
L 2638 2478 
L 5491 2478 
z
M 3066 2131 
L 3066 1725 
L 5063 1725 
L 5063 2131 
L 3066 2131 
z
M 3066 1394 
L 3066 975 
L 5063 975 
L 5063 1394 
L 3066 1394 
z
M 244 2291 
Q 438 2947 488 4013 
L 878 3928 
Q 838 2825 641 2081 
L 244 2291 
z
M 1941 3213 
Q 1797 3722 1613 4100 
L 1953 4263 
Q 2172 3891 2319 3422 
L 1941 3213 
z
M 1106 5313 
L 1547 5313 
L 1547 -447 
L 1106 -447 
L 1106 5313 
z
" transform="scale(0.015625)"/>
      <path id="IPAexGothic-5831" d="M 2741 3084 
Q 2600 2594 2428 2203 
L 3175 2203 
L 3175 1819 
L 2013 1819 
L 2013 1134 
L 3100 1134 
L 3100 750 
L 2013 750 
L 2013 -447 
L 1572 -447 
L 1572 750 
L 522 750 
L 522 1134 
L 1572 1134 
L 1572 1819 
L 438 1819 
L 438 2203 
L 1128 2203 
Q 994 2800 884 3084 
L 297 3084 
L 297 3469 
L 1572 3469 
L 1572 4134 
L 578 4134 
L 578 4519 
L 1572 4519 
L 1572 5313 
L 2013 5313 
L 2013 4519 
L 3028 4519 
L 3028 4134 
L 2013 4134 
L 2013 3469 
L 3169 3469 
L 3169 3084 
L 2741 3084 
z
M 2300 3084 
L 1309 3084 
Q 1469 2606 1544 2203 
L 2013 2203 
Q 2194 2606 2300 3084 
z
M 5684 4991 
L 5684 3591 
Q 5684 3316 5575 3219 
Q 5466 3128 5159 3128 
Q 4834 3128 4441 3166 
L 4391 3597 
Q 4763 3538 5019 3538 
Q 5256 3538 5256 3769 
L 5256 4594 
L 3800 4594 
L 3800 2741 
L 5594 2741 
L 5831 2550 
Q 5659 1603 5203 806 
Q 5544 331 6131 -6 
L 5856 -416 
Q 5319 -22 4959 425 
Q 4588 -94 4116 -497 
L 3828 -147 
Q 4319 231 4697 775 
Q 4169 1516 3969 2350 
L 3800 2350 
L 3800 -447 
L 3375 -447 
L 3375 4991 
L 5684 4991 
z
M 4353 2350 
Q 4503 1794 4922 1153 
Q 5228 1716 5350 2350 
L 4353 2350 
z
" transform="scale(0.015625)"/>
      <path id="IPAexGothic-3068" d="M 5222 56 
Q 4200 -72 3450 -72 
Q 2478 -72 1941 113 
Q 1184 372 1184 1038 
Q 1184 1584 1594 2009 
Q 1941 2369 2656 2725 
Q 2231 3734 1972 4878 
L 2491 4978 
Q 2706 3884 3078 2950 
Q 4250 3447 4756 3616 
L 4978 3150 
Q 3181 2575 2409 2078 
Q 1691 1613 1691 1113 
Q 1691 403 3322 403 
Q 4125 403 5134 563 
L 5222 56 
z
" transform="scale(0.015625)"/>
      <path id="IPAexGothic-72b6" d="M 4281 3066 
Q 4638 1166 6088 122 
L 5722 -331 
Q 4469 769 4066 2456 
Q 3853 650 2453 -494 
L 2125 -109 
Q 3550 941 3731 3066 
L 2241 3066 
L 2241 3481 
L 3753 3481 
L 3753 5144 
L 4206 5144 
L 4206 3481 
L 5984 3481 
L 5984 3066 
L 4281 3066 
z
M 1591 1600 
Q 1144 1238 528 856 
L 309 1344 
Q 875 1594 1591 2053 
L 1591 5172 
L 2044 5172 
L 2044 -447 
L 1591 -447 
L 1591 1600 
z
M 1006 2572 
Q 791 3384 444 4031 
L 834 4244 
Q 1194 3563 1422 2809 
L 1006 2572 
z
M 5178 3731 
Q 4947 4263 4591 4716 
L 4953 4953 
Q 5284 4553 5581 4019 
L 5178 3731 
z
" transform="scale(0.015625)"/>
      <path id="IPAexGothic-614b" d="M 866 4341 
Q 1219 4859 1434 5375 
L 1897 5269 
Q 1597 4741 1319 4347 
Q 1856 4356 2594 4403 
Q 2397 4625 2191 4831 
L 2522 5050 
Q 2984 4625 3375 4116 
L 3022 3853 
Q 2950 3950 2822 4116 
Q 2019 3994 494 3938 
L 359 4331 
Q 828 4331 866 4341 
z
M 2956 3713 
L 2956 1900 
Q 2956 1622 2841 1538 
Q 2741 1466 2491 1466 
Q 2209 1466 1881 1497 
L 1819 1881 
Q 2134 1825 2375 1825 
Q 2541 1825 2541 1997 
L 2541 2247 
L 1159 2247 
L 1159 1391 
L 744 1391 
L 744 3713 
L 2956 3713 
z
M 1159 3419 
L 1159 3128 
L 2541 3128 
L 2541 3419 
L 1159 3419 
z
M 1159 2834 
L 1159 2534 
L 2541 2534 
L 2541 2834 
L 1159 2834 
z
M 3931 2706 
Q 4703 2809 5328 3066 
L 5672 2725 
Q 4816 2459 3931 2347 
L 3931 2084 
Q 3931 1909 4066 1881 
Q 4216 1850 4650 1850 
Q 5403 1850 5469 1991 
Q 5516 2094 5525 2378 
L 5947 2278 
Q 5947 2219 5941 2200 
Q 5922 1769 5819 1638 
Q 5675 1453 4663 1453 
Q 3816 1453 3656 1556 
Q 3509 1663 3509 1931 
L 3509 3263 
L 3931 3263 
L 3931 2706 
z
M 3931 4678 
Q 4731 4822 5288 5056 
L 5641 4709 
Q 4847 4447 3931 4313 
L 3931 4103 
Q 3931 3925 4041 3884 
Q 4156 3853 4559 3853 
Q 5359 3853 5434 3950 
Q 5519 4041 5519 4397 
L 5934 4300 
Q 5906 3675 5744 3578 
Q 5556 3469 4591 3469 
Q 3900 3469 3719 3541 
Q 3509 3625 3509 3922 
L 3509 5313 
L 3931 5313 
L 3931 4678 
z
M 397 -25 
Q 888 447 1141 1131 
L 1563 991 
Q 1288 181 781 -353 
L 397 -25 
z
M 1966 1247 
L 2434 1247 
L 2434 359 
Q 2434 147 2563 106 
Q 2681 63 3241 63 
Q 4159 63 4259 191 
Q 4341 294 4341 728 
L 4791 594 
Q 4781 -44 4591 -206 
Q 4409 -359 3138 -359 
Q 2388 -359 2203 -281 
Q 1966 -178 1966 134 
L 1966 1247 
z
M 5703 -225 
Q 5228 519 4678 1050 
L 5044 1275 
Q 5578 788 6106 56 
L 5703 -225 
z
M 3516 378 
Q 3134 878 2766 1197 
L 3106 1472 
Q 3547 1091 3884 678 
L 3516 378 
z
" transform="scale(0.015625)"/>
      <path id="IPAexGothic-95a2" d="M 2919 5063 
L 2919 3288 
L 1016 3288 
L 1016 -450 
L 569 -450 
L 569 5063 
L 2919 5063 
z
M 1016 4709 
L 1016 4331 
L 2509 4331 
L 2509 4709 
L 1016 4709 
z
M 1016 4019 
L 1016 3628 
L 2509 3628 
L 2509 4019 
L 1016 4019 
z
M 5822 5063 
L 5822 44 
Q 5822 -409 5297 -409 
Q 4956 -409 4672 -366 
L 4594 97 
Q 4841 31 5156 31 
Q 5369 31 5369 244 
L 5369 3288 
L 3422 3288 
L 3422 5063 
L 5822 5063 
z
M 3831 4709 
L 3831 4331 
L 5369 4331 
L 5369 4709 
L 3831 4709 
z
M 3831 4019 
L 3831 3628 
L 5369 3628 
L 5369 4019 
L 3831 4019 
z
M 2425 2478 
Q 2328 2713 2150 2975 
L 2559 3122 
Q 2709 2866 2859 2478 
L 3525 2478 
Q 3716 2847 3806 3147 
L 4256 3022 
Q 4084 2669 3953 2478 
L 4766 2478 
L 4766 2113 
L 3391 2113 
L 3391 1672 
L 4928 1672 
L 4928 1300 
L 3366 1300 
Q 3363 1263 3334 1141 
Q 4016 863 4734 409 
L 4428 34 
Q 3888 441 3281 763 
Q 3278 766 3241 788 
Q 3225 797 3219 800 
Q 2881 100 1875 -256 
L 1588 122 
Q 2769 409 2931 1300 
L 1466 1300 
L 1466 1672 
L 2963 1672 
L 2963 2113 
L 1625 2113 
L 1625 2478 
L 2425 2478 
z
" transform="scale(0.015625)"/>
      <path id="IPAexGothic-4fc2" d="M 3672 2763 
Q 4203 3306 4741 4013 
L 5131 3750 
Q 4428 2884 3641 2194 
L 4288 2219 
Q 4478 2228 4819 2247 
Q 5084 2259 5197 2266 
Q 5016 2553 4741 2891 
L 5094 3097 
Q 5569 2553 5984 1822 
L 5600 1547 
Q 5478 1791 5394 1938 
Q 4747 1866 4050 1828 
L 4050 -450 
L 3603 -450 
L 3603 1803 
L 3066 1778 
Q 2728 1759 2028 1741 
L 1888 2175 
L 2003 2175 
L 2175 2175 
L 2450 2181 
L 3066 2181 
L 3103 2219 
Q 3266 2363 3372 2469 
Q 2813 3084 2247 3556 
L 2572 3884 
Q 2888 3600 2919 3569 
Q 3309 3963 3659 4472 
Q 2938 4384 2234 4338 
L 2059 4747 
Q 3884 4844 5266 5163 
L 5619 4784 
Q 4719 4597 3794 4484 
L 4106 4269 
Q 3725 3781 3297 3372 
L 3206 3281 
Q 3441 3034 3672 2763 
z
M 1578 3675 
L 1578 -447 
L 1125 -447 
L 1125 2741 
Q 834 2247 544 1856 
L 294 2253 
Q 1213 3503 1603 5241 
L 2044 5141 
Q 1841 4322 1578 3675 
z
M 1875 122 
Q 2391 684 2700 1441 
L 3116 1253 
Q 2794 447 2241 -206 
L 1875 122 
z
M 5447 -72 
Q 5009 716 4478 1313 
L 4844 1544 
Q 5453 934 5856 244 
L 5447 -72 
z
" transform="scale(0.015625)"/>
      <path id="IPAexGothic-306b" d="M 1088 -38 
Q 922 1003 922 2081 
Q 922 3222 1331 4794 
L 1813 4684 
Q 1391 3113 1391 2003 
Q 1391 1441 1422 1147 
Q 1434 1181 1813 2016 
L 2125 1797 
Q 1800 1081 1691 763 
Q 1581 453 1581 269 
Q 1581 78 1588 6 
L 1088 -38 
z
M 2834 4038 
Q 3969 4213 5313 4172 
L 5338 3681 
Q 3959 3728 2869 3547 
L 2834 4038 
z
M 5650 256 
Q 5044 172 4372 172 
Q 3463 172 3047 434 
Q 2784 594 2675 841 
Q 2572 1075 2572 1447 
Q 2572 1563 2578 1656 
L 3053 1684 
Q 3050 1613 3044 1528 
Q 3041 1481 3041 1466 
Q 3041 1200 3119 1053 
Q 3178 944 3309 850 
Q 3569 678 4275 678 
Q 4891 678 5588 763 
L 5650 256 
z
" transform="scale(0.015625)"/>
      <path id="IPAexGothic-3064" d="M 575 3541 
Q 2694 4116 3769 4116 
Q 4506 4116 4978 3750 
Q 5559 3303 5559 2497 
Q 5559 1481 4606 903 
Q 3750 388 2213 281 
L 1963 781 
Q 5022 916 5022 2497 
Q 5022 3053 4663 3375 
Q 4331 3669 3734 3669 
Q 2663 3669 800 3041 
L 575 3541 
z
" transform="scale(0.015625)"/>
      <path id="IPAexGothic-3044" d="M 3369 1447 
Q 2906 122 2278 122 
Q 1966 122 1647 481 
Q 1209 966 1044 1966 
Q 891 2888 891 4313 
L 1422 4313 
Q 1413 2444 1666 1550 
Q 1913 678 2278 678 
Q 2619 678 2925 1791 
L 3369 1447 
z
M 5378 1294 
Q 4928 2797 4034 3809 
L 4488 4031 
Q 5375 3000 5881 1563 
L 5378 1294 
z
" transform="scale(0.015625)"/>
      <path id="IPAexGothic-3066" d="M 581 4034 
Q 2978 4363 5466 4556 
L 5509 4097 
Q 4388 4031 3750 3572 
Q 2797 2878 2797 1913 
Q 2797 1169 3291 819 
Q 3778 484 4869 416 
L 4906 -116 
Q 2278 0 2278 1850 
Q 2278 3125 3691 4000 
Q 2066 3784 684 3553 
L 581 4034 
z
" transform="scale(0.015625)"/>
      <path id="IPAexGothic-8abf" d="M 5081 2247 
L 5081 775 
L 3806 775 
L 3806 428 
L 3422 428 
L 3422 2247 
L 5081 2247 
z
M 3806 1906 
L 3806 1116 
L 4697 1116 
L 4697 1906 
L 3806 1906 
z
M 2175 1684 
L 2175 -72 
L 894 -72 
L 894 -450 
L 484 -450 
L 484 1684 
L 2175 1684 
z
M 894 1313 
L 894 300 
L 1772 300 
L 1772 1313 
L 894 1313 
z
M 5875 4984 
L 5875 128 
Q 5875 -353 5397 -353 
Q 5084 -353 4672 -313 
L 4603 128 
Q 4966 69 5241 69 
Q 5453 69 5453 281 
L 5453 4600 
L 3078 4600 
L 3078 3025 
Q 3078 1475 3000 831 
Q 2913 59 2606 -513 
L 2241 -213 
Q 2528 366 2606 1203 
Q 2663 1778 2663 2803 
L 2663 4984 
L 5875 4984 
z
M 4044 3897 
L 4044 4428 
L 4441 4428 
L 4441 3897 
L 5150 3897 
L 5150 3544 
L 4441 3544 
L 4441 3009 
L 5266 3009 
L 5266 2663 
L 3269 2663 
L 3269 3009 
L 4044 3009 
L 4044 3544 
L 3378 3544 
L 3378 3897 
L 4044 3897 
z
M 569 5044 
L 2097 5044 
L 2097 4659 
L 569 4659 
L 569 5044 
z
M 313 4206 
L 2366 4206 
L 2366 3816 
L 313 3816 
L 313 4206 
z
M 569 3359 
L 2097 3359 
L 2097 2975 
L 569 2975 
L 569 3359 
z
M 569 2522 
L 2097 2522 
L 2097 2138 
L 569 2138 
L 569 2522 
z
" transform="scale(0.015625)"/>
      <path id="IPAexGothic-67fb" d="M 3384 2669 
L 4872 2669 
L 4872 109 
L 6022 109 
L 6022 -288 
L 397 -288 
L 397 109 
L 1525 109 
L 1525 2669 
L 2969 2669 
L 2969 3938 
Q 2103 2900 550 2309 
L 250 2688 
Q 1719 3181 2622 4097 
L 488 4097 
L 488 4494 
L 2953 4494 
L 2953 5306 
L 3397 5306 
L 3397 4494 
L 5925 4494 
L 5925 4097 
L 3741 4097 
Q 4725 3266 6144 2822 
L 5831 2419 
Q 4334 2997 3384 3969 
L 3384 2669 
z
M 4441 2284 
L 1950 2284 
L 1950 1813 
L 4441 1813 
L 4441 2284 
z
M 1950 1453 
L 1950 981 
L 4441 981 
L 4441 1453 
L 1950 1453 
z
M 1950 622 
L 1950 109 
L 4441 109 
L 4441 622 
L 1950 622 
z
" transform="scale(0.015625)"/>
     </defs>
     <use xlink:href="#IPAexGothic-4f4e"/>
     <use xlink:href="#IPAexGothic-30ec" x="100"/>
     <use xlink:href="#IPAexGothic-30a4" x="200"/>
     <use xlink:href="#IPAexGothic-30e4" x="300"/>
     <use xlink:href="#IPAexGothic-60c5" x="400"/>
     <use xlink:href="#IPAexGothic-5831" x="500"/>
     <use xlink:href="#IPAexGothic-3068" x="600"/>
     <use xlink:href="#IPAexGothic-30b8" x="700"/>
     <use xlink:href="#IPAexGothic-30e7" x="800"/>
     <use xlink:href="#IPAexGothic-30d6" x="900"/>
     <use xlink:href="#IPAexGothic-72b6" x="1000"/>
     <use xlink:href="#IPAexGothic-614b" x="1100"/>
     <use xlink:href="#IPAexGothic-306e" x="1200"/>
     <use xlink:href="#IPAexGothic-95a2" x="1300"/>
     <use xlink:href="#IPAexGothic-4fc2" x="1400"/>
     <use xlink:href="#IPAexGothic-6027" x="1500"/>
     <use xlink:href="#IPAexGothic-306b" x="1600"/>
     <use xlink:href="#IPAexGothic-3064" x="1700"/>
     <use xlink:href="#IPAexGothic-3044" x="1800"/>
     <use xlink:href="#IPAexGothic-3066" x="1900"/>
     <use xlink:href="#IPAexGothic-306e" x="2000"/>
     <use xlink:href="#IPAexGothic-8abf" x="2100"/>
     <use xlink:href="#IPAexGothic-67fb" x="2200"/>
    </g>
   </g>
   <g id="patch_10">
    <path d="M 540.313991 355.026174 
Q 608.20318 355.026174 676.092369 355.026174 
L 676.092369 353.276174 
Q 678.090803 354.276174 680.089238 355.276174 
Q 678.090803 356.276174 676.092369 357.276174 
L 676.092369 355.526174 
Q 608.20318 355.526174 540.313991 355.526174 
L 540.313991 355.026174 
z
" style="stroke: #000000; stroke-linecap: round"/>
   </g>
   <g id="text_4">
    <g id="patch_11">
     <path d="M 518.201614 340.521826 
L 702.201614 340.521826 
L 702.201614 317.349326 
L 518.201614 317.349326 
z
" style="fill: #ffffff; stroke: #ffffff; stroke-linejoin: miter"/>
    </g>
    <!-- 適用対象のジョブの選定 -->
    <g transform="translate(522.201614 333.481826) scale(0.16 -0.16)">
     <defs>
      <path id="IPAexGothic-9069" d="M 5784 3641 
L 5784 856 
Q 5784 416 5319 416 
Q 4978 416 4772 459 
L 4716 863 
Q 5013 819 5228 819 
Q 5363 819 5363 1009 
L 5363 3294 
L 4134 3294 
L 4134 2859 
L 5184 2859 
L 5184 2519 
L 4134 2519 
L 4134 2069 
L 4844 2069 
L 4844 959 
L 3428 959 
L 3428 653 
L 3044 653 
L 3044 2069 
L 3744 2069 
L 3744 2519 
L 2744 2519 
L 2744 2859 
L 3744 2859 
L 3744 3294 
L 2566 3294 
L 2566 403 
L 2150 403 
L 2150 3641 
L 3128 3641 
Q 3016 3966 2853 4294 
L 1953 4294 
L 1953 4653 
L 3719 4653 
L 3719 5313 
L 4159 5313 
L 4159 4653 
L 5975 4653 
L 5975 4294 
L 5056 4294 
Q 4919 3969 4734 3641 
L 5784 3641 
z
M 3306 4294 
Q 3453 3997 3578 3641 
L 4306 3641 
Q 4481 3988 4588 4294 
L 3306 4294 
z
M 3428 1756 
L 3428 1272 
L 4459 1272 
L 4459 1756 
L 3428 1756 
z
M 1553 678 
Q 1853 281 2334 166 
Q 2728 69 3838 69 
Q 4913 69 6147 153 
Q 6009 -94 5981 -313 
Q 4931 -359 4063 -359 
Q 2638 -359 2091 -188 
Q 1678 -50 1400 313 
Q 1044 -109 588 -481 
L 331 -31 
Q 747 228 1131 556 
L 1131 2309 
L 331 2309 
L 331 2725 
L 1553 2725 
L 1553 678 
z
M 1350 3775 
Q 850 4409 466 4750 
L 778 5038 
Q 1278 4619 1700 4091 
L 1350 3775 
z
" transform="scale(0.015625)"/>
      <path id="IPAexGothic-7528" d="M 5553 4891 
L 5553 203 
Q 5553 -53 5456 -169 
Q 5328 -316 4941 -316 
Q 4544 -316 4191 -275 
L 4113 203 
Q 4516 131 4875 131 
Q 5106 131 5106 372 
L 5106 1625 
L 3441 1625 
L 3441 -103 
L 3000 -103 
L 3000 1625 
L 1469 1625 
Q 1441 234 816 -488 
L 459 -134 
Q 1022 466 1022 1831 
L 1022 4891 
L 5553 4891 
z
M 1475 4500 
L 1475 3469 
L 3000 3469 
L 3000 4500 
L 1475 4500 
z
M 1475 3084 
L 1475 2009 
L 3000 2009 
L 3000 3084 
L 1475 3084 
z
M 5106 2009 
L 5106 3084 
L 3441 3084 
L 3441 2009 
L 5106 2009 
z
M 5106 3469 
L 5106 4500 
L 3441 4500 
L 3441 3469 
L 5106 3469 
z
" transform="scale(0.015625)"/>
      <path id="IPAexGothic-5bfe" d="M 2694 3597 
Q 2694 3566 2688 3534 
Q 2584 2566 2234 1703 
Q 2569 1288 3028 666 
L 2656 331 
Q 2434 672 2016 1234 
Q 1466 184 725 -416 
L 366 -63 
Q 1156 525 1684 1569 
L 1709 1625 
Q 1191 2278 647 2844 
L 975 3113 
Q 1475 2619 1906 2100 
Q 2153 2825 2241 3597 
L 391 3597 
L 391 4013 
L 1666 4013 
L 1666 5209 
L 2106 5209 
L 2106 4013 
L 3272 4013 
L 3272 3706 
L 4822 3706 
L 4822 5209 
L 5275 5209 
L 5275 3706 
L 6041 3706 
L 6041 3278 
L 5300 3278 
L 5300 109 
Q 5300 -397 4694 -397 
Q 4206 -397 3872 -353 
L 3784 141 
Q 4200 63 4616 63 
Q 4847 63 4847 269 
L 4847 3278 
L 3241 3278 
L 3241 3597 
L 2694 3597 
z
M 4000 1147 
Q 3619 1994 3188 2578 
L 3578 2816 
Q 4044 2188 4409 1428 
L 4000 1147 
z
" transform="scale(0.015625)"/>
      <path id="IPAexGothic-8c61" d="M 3194 2681 
Q 3009 2528 2900 2450 
Q 3834 1584 3834 450 
Q 3834 -84 3675 -281 
Q 3528 -447 3175 -447 
Q 2816 -447 2419 -416 
L 2334 25 
Q 2700 -38 3041 -38 
Q 3303 -38 3363 134 
Q 3400 250 3400 463 
Q 3400 800 3297 1147 
Q 2341 231 863 -288 
L 550 72 
Q 1975 503 3138 1453 
L 3169 1478 
Q 3084 1638 2997 1784 
Q 2119 1053 875 641 
L 594 991 
Q 1922 1350 2803 2041 
Q 2741 2113 2613 2253 
Q 1856 1775 838 1466 
L 575 1816 
Q 1709 2097 2631 2681 
L 1106 2681 
L 1106 3444 
Q 878 3250 659 3109 
L 384 3409 
Q 1491 4166 2169 5375 
L 2613 5256 
Q 2578 5194 2413 4916 
L 4188 4916 
L 4463 4716 
Q 4119 4278 3834 4013 
L 5453 4013 
L 5453 2681 
L 3775 2681 
Q 3956 2159 4200 1772 
Q 4884 2200 5319 2572 
L 5691 2284 
Q 5094 1831 4403 1478 
Q 4969 741 5947 263 
L 5588 -128 
Q 4403 531 3775 1728 
Q 3572 2122 3366 2681 
L 3194 2681 
z
M 3469 3653 
L 3469 3041 
L 5000 3041 
L 5000 3653 
L 3469 3653 
z
M 3041 3041 
L 3041 3653 
L 1547 3653 
L 1547 3041 
L 3041 3041 
z
M 3309 4013 
Q 3616 4328 3769 4544 
L 2156 4544 
Q 2031 4375 1700 4013 
L 3309 4013 
z
" transform="scale(0.015625)"/>
      <path id="IPAexGothic-9078" d="M 1547 653 
Q 1763 363 2041 241 
Q 2447 63 3606 63 
Q 4566 63 6128 159 
Q 6009 -113 5981 -306 
Q 4584 -366 3838 -366 
Q 2631 -366 2097 -206 
Q 1669 -81 1388 288 
Q 1069 -100 588 -494 
L 325 -44 
Q 728 191 1119 531 
L 1119 2309 
L 331 2309 
L 331 2725 
L 1547 2725 
L 1547 653 
z
M 2463 3988 
L 2463 3616 
Q 2463 3484 2531 3456 
Q 2644 3403 2916 3403 
Q 3419 3403 3500 3513 
Q 3538 3569 3556 3859 
L 3928 3781 
Q 3900 3288 3734 3181 
Q 3631 3106 3353 3097 
L 3353 2591 
L 4313 2591 
L 4313 3116 
Q 4063 3184 4063 3438 
L 4063 4306 
L 5278 4306 
L 5278 4716 
L 3897 4716 
L 3897 5063 
L 5675 5063 
L 5675 3988 
L 4453 3988 
L 4453 3634 
Q 4453 3500 4509 3463 
Q 4603 3409 4869 3409 
Q 5063 3409 5266 3428 
Q 5447 3438 5478 3544 
Q 5506 3631 5516 3834 
L 5888 3763 
Q 5875 3347 5753 3213 
Q 5625 3084 4881 3084 
L 4784 3084 
L 4728 3084 
L 4728 2591 
L 5719 2591 
L 5719 2244 
L 4728 2244 
L 4728 1691 
L 5969 1691 
L 5969 1325 
L 1809 1325 
L 1809 1691 
L 2934 1691 
L 2934 2244 
L 2006 2244 
L 2006 2591 
L 2934 2591 
L 2934 3078 
L 2916 3078 
L 2866 3078 
Q 2316 3078 2200 3153 
Q 2072 3244 2072 3456 
L 2072 4306 
L 3281 4306 
L 3281 4716 
L 1900 4716 
L 1900 5063 
L 3678 5063 
L 3678 3988 
L 2463 3988 
z
M 4313 2244 
L 3353 2244 
L 3353 1691 
L 4313 1691 
L 4313 2244 
z
M 1344 3775 
Q 916 4341 459 4750 
L 772 5038 
Q 1272 4619 1694 4091 
L 1344 3775 
z
M 1975 550 
Q 2728 844 3256 1269 
L 3603 1013 
Q 3022 544 2291 213 
L 1975 550 
z
M 5466 238 
Q 4816 706 4147 1019 
L 4453 1306 
Q 5303 916 5816 569 
L 5466 238 
z
" transform="scale(0.015625)"/>
      <path id="IPAexGothic-5b9a" d="M 3431 303 
Q 3931 225 4709 225 
Q 5191 225 6053 263 
Q 5963 59 5888 -228 
Q 5234 -250 4844 -250 
Q 3569 -250 3003 -78 
Q 2259 153 1750 903 
Q 1441 163 806 -459 
L 475 -75 
Q 1416 759 1684 2419 
L 2125 2303 
Q 2031 1756 1909 1356 
Q 2338 678 2972 416 
L 2972 2944 
L 1434 2944 
L 1434 3353 
L 4959 3353 
L 4959 2944 
L 3431 2944 
L 3431 1984 
L 5397 1984 
L 5397 1569 
L 3431 1569 
L 3431 303 
z
M 3419 4428 
L 5750 4428 
L 5750 3166 
L 5275 3166 
L 5275 4025 
L 1122 4025 
L 1122 3166 
L 647 3166 
L 647 4428 
L 2938 4428 
L 2938 5313 
L 3419 5313 
L 3419 4428 
z
" transform="scale(0.015625)"/>
     </defs>
     <use xlink:href="#IPAexGothic-9069"/>
     <use xlink:href="#IPAexGothic-7528" x="100"/>
     <use xlink:href="#IPAexGothic-5bfe" x="200"/>
     <use xlink:href="#IPAexGothic-8c61" x="300"/>
     <use xlink:href="#IPAexGothic-306e" x="400"/>
     <use xlink:href="#IPAexGothic-30b8" x="500"/>
     <use xlink:href="#IPAexGothic-30e7" x="600"/>
     <use xlink:href="#IPAexGothic-30d6" x="700"/>
     <use xlink:href="#IPAexGothic-306e" x="800"/>
     <use xlink:href="#IPAexGothic-9078" x="900"/>
     <use xlink:href="#IPAexGothic-5b9a" x="1000"/>
    </g>
   </g>
   <g id="patch_12">
    <path d="M 465.767193 289.64313 
Q 498.71257 289.64313 531.657947 289.64313 
L 531.657947 287.89313 
Q 533.656382 288.89313 535.654816 289.89313 
Q 533.656382 290.89313 531.657947 291.89313 
L 531.657947 290.14313 
Q 498.71257 290.14313 465.767193 290.14313 
L 465.767193 289.64313 
z
" style="stroke: #000000; stroke-linecap: round"/>
   </g>
   <g id="text_5">
    <g id="patch_13">
     <path d="M 334.045167 275.138783 
L 662.717667 275.138783 
L 662.717667 250.771283 
L 334.045167 250.771283 
z
" style="fill: #ffffff; stroke: #ffffff; stroke-linejoin: miter"/>
    </g>
    <!-- rapi と eBPF を組み合わせたシステムの実装 -->
    <g transform="translate(338.045167 268.098783) scale(0.16 -0.16)">
     <defs>
      <path id="IPAexGothic-72" d="M 2309 3316 
L 2213 2769 
Q 2106 2791 2022 2791 
Q 1653 2791 1413 2444 
Q 1113 2006 1113 1675 
L 1113 63 
L 563 63 
L 563 3250 
L 1081 3250 
L 1056 2303 
L 1069 2303 
Q 1422 3341 2097 3341 
Q 2206 3341 2309 3316 
z
" transform="scale(0.015625)"/>
      <path id="IPAexGothic-61" d="M 3156 63 
L 2672 63 
Q 2559 303 2531 556 
L 2509 556 
Q 2147 -25 1428 -25 
Q 934 -25 622 288 
Q 347 563 347 959 
Q 347 1947 2050 1997 
L 2478 2009 
L 2478 2175 
Q 2478 2509 2288 2700 
Q 2088 2900 1775 2900 
Q 1238 2900 969 2378 
L 494 2597 
Q 938 3328 1788 3328 
Q 2375 3328 2691 3000 
Q 2984 2706 2984 2169 
L 2984 997 
Q 2984 400 3156 63 
z
M 2491 1625 
L 2141 1619 
Q 903 1591 903 953 
Q 903 728 1050 581 
Q 1231 403 1525 403 
Q 1934 403 2234 703 
Q 2491 969 2491 1344 
L 2491 1625 
z
" transform="scale(0.015625)"/>
      <path id="IPAexGothic-70" d="M 1075 2688 
Q 1525 3341 2206 3341 
Q 2769 3341 3172 2938 
Q 3641 2469 3641 1644 
Q 3641 841 3178 372 
Q 2775 -31 2200 -31 
Q 1569 -31 1106 497 
L 1106 -1216 
L 563 -1216 
L 563 3250 
L 1075 3250 
L 1075 2688 
z
M 1106 1950 
L 1106 1291 
Q 1106 897 1516 600 
Q 1791 403 2106 403 
Q 2469 403 2725 659 
Q 3066 997 3066 1631 
Q 3066 2200 2784 2559 
Q 2503 2900 2100 2900 
Q 1656 2900 1338 2484 
Q 1106 2184 1106 1950 
z
" transform="scale(0.015625)"/>
      <path id="IPAexGothic-69" d="M 1178 3928 
L 550 3928 
L 550 4569 
L 1178 4569 
L 1178 3928 
z
M 1138 63 
L 588 63 
L 588 3250 
L 1138 3250 
L 1138 63 
z
" transform="scale(0.015625)"/>
      <path id="IPAexGothic-20" transform="scale(0.015625)"/>
      <path id="IPAexGothic-65" d="M 863 1594 
Q 891 1041 1209 722 
Q 1534 397 1997 397 
Q 2606 397 2963 966 
L 3322 728 
Q 2869 -31 1931 -31 
Q 1222 -31 766 422 
Q 306 884 306 1641 
Q 306 2444 788 2925 
Q 1216 3353 1856 3353 
Q 2459 3353 2866 2956 
Q 3322 2494 3322 1722 
L 3322 1594 
L 863 1594 
z
M 2756 1997 
Q 2709 2431 2450 2681 
Q 2194 2938 1844 2938 
Q 1438 2938 1150 2591 
Q 953 2356 894 1997 
L 2756 1997 
z
" transform="scale(0.015625)"/>
      <path id="IPAexGothic-42" d="M 2688 2425 
Q 3816 2225 3816 1338 
Q 3816 556 3041 222 
Q 2672 63 2094 63 
L 609 63 
L 609 4634 
L 1916 4634 
Q 2494 4634 2869 4500 
Q 3644 4222 3644 3491 
Q 3644 2609 2688 2447 
L 2688 2425 
z
M 1159 2656 
L 1844 2656 
Q 3063 2656 3063 3431 
Q 3063 4181 1881 4181 
L 1159 4181 
L 1159 2656 
z
M 1159 522 
L 2016 522 
Q 3222 522 3222 1369 
Q 3222 1897 2625 2100 
Q 2278 2222 1875 2222 
L 1159 2222 
L 1159 522 
z
" transform="scale(0.015625)"/>
      <path id="IPAexGothic-50" d="M 609 4634 
L 1941 4634 
Q 3688 4634 3688 3322 
Q 3688 1934 1906 1934 
L 1172 1934 
L 1172 63 
L 609 63 
L 609 4634 
z
M 1172 2381 
L 1800 2381 
Q 3100 2381 3100 3316 
Q 3100 4181 1894 4181 
L 1172 4181 
L 1172 2381 
z
" transform="scale(0.015625)"/>
      <path id="IPAexGothic-46" d="M 3469 4141 
L 1172 4141 
L 1172 2656 
L 3206 2656 
L 3206 2188 
L 1172 2188 
L 1172 63 
L 609 63 
L 609 4634 
L 3469 4634 
L 3469 4141 
z
" transform="scale(0.015625)"/>
      <path id="IPAexGothic-3092" d="M 1094 4263 
Q 1544 4222 2359 4222 
Q 2581 4734 2700 5163 
L 3175 5028 
Q 2997 4538 2859 4256 
Q 3516 4284 4294 4459 
L 4356 4019 
Q 3603 3869 2656 3819 
Q 2391 3284 2059 2797 
Q 2531 3200 2963 3200 
Q 3638 3200 3859 2378 
Q 4556 2681 5338 2950 
L 5575 2528 
Q 4641 2253 3941 1956 
Q 3981 1678 3994 1028 
L 3513 991 
Q 3513 1456 3494 1753 
Q 2388 1194 2388 716 
Q 2388 428 2753 328 
Q 3066 241 3806 241 
Q 4394 241 5178 344 
L 5216 -128 
Q 4434 -213 3653 -213 
Q 2656 -213 2244 41 
Q 1913 244 1913 631 
Q 1913 1094 2344 1497 
Q 2709 1841 3428 2181 
Q 3266 2797 2878 2797 
Q 2238 2797 1209 1419 
L 838 1694 
Q 1625 2716 2163 3800 
Q 1522 3800 1088 3825 
L 1094 4263 
z
" transform="scale(0.015625)"/>
      <path id="IPAexGothic-7d44" d="M 1319 3072 
Q 916 3666 438 4134 
L 744 4447 
Q 844 4341 981 4178 
Q 1356 4688 1672 5331 
L 2088 5100 
Q 1669 4413 1225 3884 
L 1281 3809 
Q 1466 3572 1569 3419 
Q 1947 3959 2319 4581 
L 2697 4347 
Q 2078 3359 1422 2613 
L 1397 2584 
L 1597 2597 
Q 1984 2619 2416 2656 
Q 2316 2884 2159 3175 
L 2503 3334 
Q 2791 2875 3059 2163 
L 2663 1947 
Q 2603 2141 2528 2356 
Q 2256 2297 1884 2253 
L 1884 -447 
L 1469 -447 
L 1469 2203 
Q 1063 2153 456 2106 
L 322 2547 
Q 678 2556 938 2566 
Q 966 2606 1056 2722 
Q 1184 2888 1231 2950 
L 1319 3072 
z
M 5481 4928 
L 5481 141 
L 6119 141 
L 6119 -250 
L 2600 -250 
L 2600 141 
L 3266 141 
L 3266 4928 
L 5481 4928 
z
M 3694 4538 
L 3694 3347 
L 5053 3347 
L 5053 4538 
L 3694 4538 
z
M 3694 2963 
L 3694 1778 
L 5053 1778 
L 5053 2963 
L 3694 2963 
z
M 3694 1394 
L 3694 141 
L 5053 141 
L 5053 1394 
L 3694 1394 
z
M 403 238 
Q 634 838 725 1778 
L 1134 1722 
Q 1050 728 819 0 
L 403 238 
z
M 2453 459 
Q 2328 1200 2106 1766 
L 2472 1888 
Q 2722 1359 2875 659 
L 2453 459 
z
" transform="scale(0.015625)"/>
      <path id="IPAexGothic-307f" d="M 1291 4416 
Q 2209 4456 3341 4647 
L 3666 4409 
Q 3478 3597 3134 2703 
Q 3959 2575 4581 2300 
Q 4669 2759 4678 3488 
L 5163 3381 
Q 5134 2672 5016 2106 
Q 5519 1856 6016 1519 
L 5722 1081 
Q 5184 1459 4888 1613 
Q 4572 441 3456 -238 
L 3072 109 
Q 4150 678 4472 1831 
Q 3706 2200 2969 2284 
Q 2038 200 1319 200 
Q 1013 200 775 525 
Q 569 819 569 1197 
Q 569 1756 1081 2172 
Q 1681 2647 2663 2716 
Q 2900 3313 3084 4159 
Q 2278 4022 1447 3956 
L 1291 4416 
z
M 2481 2291 
Q 1644 2206 1241 1734 
Q 1038 1494 1038 1178 
Q 1038 1019 1100 897 
Q 1188 706 1338 706 
Q 1513 706 1797 1097 
Q 2131 1534 2481 2291 
z
" transform="scale(0.015625)"/>
      <path id="IPAexGothic-5408" d="M 1831 3188 
L 4653 3188 
L 4653 2778 
L 1747 2778 
L 1747 3125 
Q 1275 2778 594 2453 
L 294 2828 
Q 2006 3509 2891 5147 
L 3431 5147 
Q 4331 3806 6125 3003 
L 5831 2588 
Q 4119 3416 3175 4731 
Q 2650 3806 1831 3188 
z
M 5113 2088 
L 5113 -450 
L 4638 -450 
L 4638 -97 
L 1766 -97 
L 1766 -450 
L 1284 -450 
L 1284 2088 
L 5113 2088 
z
M 1766 1691 
L 1766 300 
L 4638 300 
L 4638 1691 
L 1766 1691 
z
" transform="scale(0.015625)"/>
      <path id="IPAexGothic-308f" d="M 609 3672 
Q 1272 3750 1894 3884 
L 1934 4978 
L 2406 4972 
L 2369 3934 
L 2753 3634 
Q 2416 3238 2356 3153 
Q 2350 3078 2350 2853 
Q 3322 3616 4219 3616 
Q 4878 3616 5331 3200 
Q 5819 2750 5819 2028 
Q 5819 419 3584 -53 
L 3266 391 
Q 5294 766 5294 2034 
Q 5294 2534 5000 2847 
Q 4691 3175 4175 3175 
Q 3341 3175 2344 2303 
Q 2344 678 2369 -150 
L 1881 -150 
Q 1863 1200 1869 1888 
Q 1766 1781 866 716 
L 513 1081 
Q 1450 2088 1869 2469 
Q 1869 2500 1878 2947 
Q 1881 3225 1888 3456 
Q 1406 3319 744 3178 
L 609 3672 
z
" transform="scale(0.015625)"/>
      <path id="IPAexGothic-305b" d="M 4013 4922 
L 4500 4922 
L 4500 3475 
L 5881 3541 
L 5900 3116 
L 4500 3053 
L 4500 1863 
Q 4500 1363 3994 1363 
Q 3563 1363 3169 1516 
L 3169 1997 
Q 3575 1816 3816 1816 
Q 4013 1816 4013 2028 
L 4013 3028 
L 2191 2944 
L 2191 1044 
Q 2191 613 2550 525 
Q 2784 463 3609 463 
Q 4384 463 5172 544 
L 5191 44 
Q 4403 -19 3641 -19 
Q 2456 -19 2081 172 
Q 1697 375 1697 909 
L 1697 2919 
L 488 2859 
L 469 3291 
L 1697 3347 
L 1697 4609 
L 2191 4609 
L 2191 3366 
L 4013 3456 
L 4013 4922 
z
" transform="scale(0.015625)"/>
      <path id="IPAexGothic-305f" d="M 684 3994 
Q 1138 3953 1556 3953 
Q 1797 3953 2106 3975 
Q 2266 4594 2369 5113 
L 2875 5025 
Q 2806 4731 2619 4013 
Q 3209 4084 3656 4191 
L 3688 3719 
Q 3109 3613 2497 3566 
Q 1822 1294 1153 -44 
L 653 172 
Q 1406 1500 1991 3531 
Q 1634 3513 1256 3513 
Q 1106 3513 697 3525 
L 684 3994 
z
M 5753 78 
Q 5059 -13 4597 -13 
Q 3619 -13 3206 334 
Q 2866 625 2766 1222 
L 3213 1388 
Q 3247 1069 3347 903 
Q 3425 775 3578 672 
Q 3866 481 4556 481 
Q 5009 481 5728 575 
L 5753 78 
z
M 3144 2859 
Q 4216 3147 5409 3072 
L 5381 2597 
L 5356 2597 
Q 4263 2663 3194 2419 
L 3144 2859 
z
" transform="scale(0.015625)"/>
      <path id="IPAexGothic-30b7" d="M 2828 3531 
Q 2219 4056 1613 4359 
L 1913 4781 
Q 2503 4491 3169 3981 
L 2828 3531 
z
M 1163 500 
Q 3944 1094 5338 3525 
L 5688 3128 
Q 4297 700 1484 0 
L 1163 500 
z
M 2072 2278 
Q 1466 2800 831 3109 
L 1131 3541 
Q 1806 3213 2406 2725 
L 2072 2278 
z
" transform="scale(0.015625)"/>
      <path id="IPAexGothic-30b9" d="M 4359 4481 
L 4716 4147 
Q 4328 3072 3647 2150 
Q 4659 1434 5659 453 
L 5234 19 
Q 4256 1088 3353 1778 
Q 2372 597 1044 -31 
L 653 403 
Q 3128 1453 4097 4000 
L 1241 3963 
L 1228 4453 
L 4359 4481 
z
" transform="scale(0.015625)"/>
      <path id="IPAexGothic-30c6" d="M 563 3072 
L 5741 3072 
L 5741 2613 
L 3578 2613 
Q 3538 1516 3134 872 
Q 2688 156 1663 -256 
L 1313 156 
Q 2338 538 2713 1166 
Q 3003 1644 3034 2613 
L 563 2613 
L 563 3072 
z
M 1406 4588 
L 4941 4588 
L 4941 4128 
L 1406 4128 
L 1406 4588 
z
" transform="scale(0.015625)"/>
      <path id="IPAexGothic-30e0" d="M 609 891 
L 719 897 
L 884 903 
Q 1053 916 1263 925 
Q 1413 931 1447 934 
Q 2291 2888 2856 4706 
L 3394 4525 
Q 2841 2859 2019 981 
Q 3553 1109 4659 1275 
Q 4200 1950 3669 2588 
L 4122 2838 
Q 5075 1700 5788 513 
L 5319 194 
Q 5038 691 4922 866 
Q 2919 509 822 328 
L 609 891 
z
" transform="scale(0.015625)"/>
      <path id="IPAexGothic-5b9f" d="M 3525 1275 
Q 4288 350 6022 91 
L 5738 -375 
Q 3953 -41 3219 1050 
Q 2731 -144 728 -472 
L 466 -44 
Q 2422 150 2872 1275 
L 384 1275 
L 384 1659 
L 2950 1659 
L 2950 2144 
L 966 2144 
L 966 2509 
L 2950 2509 
L 2950 2969 
L 1266 2969 
L 1266 3341 
L 2950 3341 
L 2950 3988 
L 3403 3988 
L 3403 3341 
L 5125 3341 
L 5125 2969 
L 3403 2969 
L 3403 2509 
L 5444 2509 
L 5444 2144 
L 3403 2144 
L 3403 1659 
L 6016 1659 
L 6016 1275 
L 3525 1275 
z
M 3413 4544 
L 5778 4544 
L 5778 3269 
L 5309 3269 
L 5309 4147 
L 1084 4147 
L 1084 3269 
L 616 3269 
L 616 4544 
L 2938 4544 
L 2938 5313 
L 3413 5313 
L 3413 4544 
z
" transform="scale(0.015625)"/>
      <path id="IPAexGothic-88c5" d="M 3588 1709 
Q 3831 1291 4234 916 
Q 4722 1234 5134 1638 
L 5572 1391 
Q 5041 944 4559 659 
Q 5131 263 6069 -50 
L 5763 -447 
Q 3756 350 3178 1709 
Q 2775 1338 2275 1050 
L 2275 153 
Q 3034 278 3722 447 
L 3741 66 
Q 2363 -281 1175 -466 
L 1003 -31 
Q 1078 -22 1834 78 
L 1834 825 
Q 1244 566 472 334 
L 191 719 
Q 1719 1091 2647 1709 
L 344 1709 
L 344 2094 
L 2941 2094 
L 2941 2594 
L 3394 2594 
L 3394 2094 
L 6038 2094 
L 6038 1709 
L 3588 1709 
z
M 1728 3334 
Q 1716 3322 1638 3272 
Q 1234 2978 666 2694 
L 416 3097 
Q 1050 3359 1728 3794 
L 1728 5313 
L 2169 5313 
L 2169 2463 
L 1728 2463 
L 1728 3334 
z
M 3909 4525 
L 3909 5313 
L 4356 5313 
L 4356 4525 
L 5956 4525 
L 5956 4116 
L 4356 4116 
L 4356 3103 
L 5738 3103 
L 5738 2719 
L 2609 2719 
L 2609 3103 
L 3909 3103 
L 3909 4116 
L 2431 4116 
L 2431 4525 
L 3909 4525 
z
M 1100 3853 
Q 853 4472 581 4800 
L 953 5025 
Q 1259 4631 1491 4103 
L 1100 3853 
z
" transform="scale(0.015625)"/>
     </defs>
     <use xlink:href="#IPAexGothic-72"/>
     <use xlink:href="#IPAexGothic-61" x="37.011719"/>
     <use xlink:href="#IPAexGothic-70" x="91.992188"/>
     <use xlink:href="#IPAexGothic-69" x="154.101562"/>
     <use xlink:href="#IPAexGothic-20" x="181.103516"/>
     <use xlink:href="#IPAexGothic-3068" x="208.105469"/>
     <use xlink:href="#IPAexGothic-20" x="308.105469"/>
     <use xlink:href="#IPAexGothic-65" x="335.107422"/>
     <use xlink:href="#IPAexGothic-42" x="391.992188"/>
     <use xlink:href="#IPAexGothic-50" x="457.910156"/>
     <use xlink:href="#IPAexGothic-46" x="520.019531"/>
     <use xlink:href="#IPAexGothic-20" x="577.197266"/>
     <use xlink:href="#IPAexGothic-3092" x="604.199219"/>
     <use xlink:href="#IPAexGothic-7d44" x="704.199219"/>
     <use xlink:href="#IPAexGothic-307f" x="804.199219"/>
     <use xlink:href="#IPAexGothic-5408" x="904.199219"/>
     <use xlink:href="#IPAexGothic-308f" x="1004.199219"/>
     <use xlink:href="#IPAexGothic-305b" x="1104.199219"/>
     <use xlink:href="#IPAexGothic-305f" x="1204.199219"/>
     <use xlink:href="#IPAexGothic-30b7" x="1304.199219"/>
     <use xlink:href="#IPAexGothic-30b9" x="1404.199219"/>
     <use xlink:href="#IPAexGothic-30c6" x="1504.199219"/>
     <use xlink:href="#IPAexGothic-30e0" x="1604.199219"/>
     <use xlink:href="#IPAexGothic-306e" x="1704.199219"/>
     <use xlink:href="#IPAexGothic-5b9f" x="1804.199219"/>
     <use xlink:href="#IPAexGothic-88c5" x="1904.199219"/>
    </g>
   </g>
   <g id="patch_14">
    <path d="M 200.194224 224.260087 
Q 330.980888 224.260087 461.767551 224.260087 
L 461.767551 222.510087 
Q 463.767372 223.510087 465.767193 224.510087 
Q 463.767372 225.510087 461.767551 226.510087 
L 461.767551 224.760087 
Q 330.980888 224.760087 200.194224 224.760087 
L 200.194224 224.260087 
z
" style="stroke: #000000; stroke-linecap: round"/>
   </g>
   <g id="text_6">
    <g id="patch_15">
     <path d="M 217.123621 209.755739 
L 444.178621 209.755739 
L 444.178621 186.730739 
L 217.123621 186.730739 
z
" style="fill: #ffffff; stroke: #ffffff; stroke-linejoin: miter"/>
    </g>
    <!-- eBPF を用いた関連研究の調査 -->
    <g transform="translate(221.123621 202.715739) scale(0.16 -0.16)">
     <defs>
      <path id="IPAexGothic-9023" d="M 3700 3816 
L 3700 4275 
L 1925 4275 
L 1925 4647 
L 3700 4647 
L 3700 5313 
L 4128 5313 
L 4128 4647 
L 5888 4647 
L 5888 4275 
L 4128 4275 
L 4128 3816 
L 5522 3816 
L 5522 1828 
L 4128 1828 
L 4128 1344 
L 5950 1344 
L 5950 959 
L 4128 959 
L 4128 238 
L 3700 238 
L 3700 959 
L 1919 959 
L 1919 1344 
L 3700 1344 
L 3700 1828 
L 2303 1828 
L 2303 3816 
L 3700 3816 
z
M 3713 3450 
L 2719 3450 
L 2719 3003 
L 3713 3003 
L 3713 3450 
z
M 4116 3450 
L 4116 3003 
L 5106 3003 
L 5106 3450 
L 4116 3450 
z
M 3713 2650 
L 2719 2650 
L 2719 2188 
L 3713 2188 
L 3713 2650 
z
M 4116 2650 
L 4116 2188 
L 5106 2188 
L 5106 2650 
L 4116 2650 
z
M 1700 716 
Q 1947 375 2372 228 
Q 2794 88 3934 88 
Q 4863 88 6141 166 
Q 6022 -53 5975 -306 
Q 4881 -347 4278 -347 
Q 2872 -347 2316 -181 
Q 1794 -16 1516 378 
Q 1175 -34 613 -481 
L 319 -13 
Q 878 316 1259 653 
L 1259 2303 
L 375 2303 
L 375 2731 
L 1700 2731 
L 1700 716 
z
M 1522 3775 
Q 1019 4378 556 4728 
L 869 5050 
Q 1503 4547 1863 4122 
L 1522 3775 
z
" transform="scale(0.015625)"/>
      <path id="IPAexGothic-7814" d="M 1294 2950 
L 2466 2950 
L 2466 197 
L 1288 197 
L 1288 -328 
L 866 -328 
L 866 2119 
Q 666 1794 456 1534 
L 213 1906 
Q 1031 2956 1300 4416 
L 463 4416 
L 463 4819 
L 2613 4819 
L 2613 4416 
L 1741 4416 
Q 1588 3634 1294 2950 
z
M 1288 2553 
L 1288 594 
L 2050 594 
L 2050 2553 
L 1288 2553 
z
M 5209 4544 
L 5209 2859 
L 6116 2859 
L 6116 2450 
L 5231 2450 
L 5231 -384 
L 4784 -384 
L 4784 2450 
L 3988 2450 
Q 3978 1384 3775 741 
Q 3553 25 2972 -538 
L 2625 -213 
Q 3253 378 3425 1197 
Q 3522 1666 3541 2450 
L 2663 2450 
L 2663 2859 
L 3541 2859 
L 3541 4544 
L 2791 4544 
L 2791 4947 
L 5891 4947 
L 5891 4544 
L 5209 4544 
z
M 4769 4544 
L 3988 4544 
L 3988 2859 
L 4769 2859 
L 4769 4544 
z
" transform="scale(0.015625)"/>
      <path id="IPAexGothic-7a76" d="M 5497 3369 
Q 5478 2909 5338 2778 
Q 5178 2631 4375 2631 
Q 3859 2631 3725 2728 
Q 3578 2825 3578 3075 
L 3578 4200 
L 1106 4200 
L 1106 3297 
L 647 3297 
L 647 4603 
L 2938 4603 
L 2938 5313 
L 3413 5313 
L 3413 4603 
L 5747 4603 
L 5747 3369 
L 5497 3369 
z
M 5278 3503 
L 5278 4200 
L 4031 4200 
L 4031 3222 
Q 4031 3084 4081 3053 
Q 4156 3022 4428 3022 
Q 4788 3022 4894 3053 
Q 5025 3103 5034 3266 
Q 5047 3356 5056 3459 
Q 5066 3547 5069 3559 
L 5278 3503 
z
M 3019 2059 
L 4550 2059 
L 4550 378 
Q 4550 216 4647 166 
Q 4731 128 5031 128 
Q 5494 128 5563 319 
Q 5625 475 5644 1131 
L 6106 966 
Q 6056 63 5906 -109 
Q 5725 -319 4997 -319 
Q 4491 -319 4313 -238 
Q 4091 -128 4091 172 
L 4091 1656 
L 2969 1656 
Q 2863 766 2363 275 
Q 1897 -188 934 -447 
L 641 -44 
Q 1613 178 2016 569 
Q 2391 925 2497 1600 
L 825 1600 
L 825 2009 
L 2559 2009 
L 2559 2909 
L 3019 2909 
L 3019 2059 
z
M 731 2741 
Q 1981 3075 2259 4103 
L 2688 4000 
Q 2400 2803 1038 2381 
L 731 2741 
z
" transform="scale(0.015625)"/>
     </defs>
     <use xlink:href="#IPAexGothic-65"/>
     <use xlink:href="#IPAexGothic-42" x="56.884766"/>
     <use xlink:href="#IPAexGothic-50" x="122.802734"/>
     <use xlink:href="#IPAexGothic-46" x="184.912109"/>
     <use xlink:href="#IPAexGothic-20" x="242.089844"/>
     <use xlink:href="#IPAexGothic-3092" x="269.091797"/>
     <use xlink:href="#IPAexGothic-7528" x="369.091797"/>
     <use xlink:href="#IPAexGothic-3044" x="469.091797"/>
     <use xlink:href="#IPAexGothic-305f" x="569.091797"/>
     <use xlink:href="#IPAexGothic-95a2" x="669.091797"/>
     <use xlink:href="#IPAexGothic-9023" x="769.091797"/>
     <use xlink:href="#IPAexGothic-7814" x="869.091797"/>
     <use xlink:href="#IPAexGothic-7a76" x="969.091797"/>
     <use xlink:href="#IPAexGothic-306e" x="1069.091797"/>
     <use xlink:href="#IPAexGothic-8abf" x="1169.091797"/>
     <use xlink:href="#IPAexGothic-67fb" x="1269.091797"/>
    </g>
   </g>
   <g id="patch_16">
    <path d="M 200.194224 158.877043 
Q 330.980888 158.877043 461.767551 158.877043 
L 461.767551 157.127043 
Q 463.767372 158.127043 465.767193 159.127043 
Q 463.767372 160.127043 461.767551 161.127043 
L 461.767551 159.377043 
Q 330.980888 159.377043 200.194224 159.377043 
L 200.194224 158.877043 
z
" style="stroke: #000000; stroke-linecap: round"/>
   </g>
   <g id="text_7">
    <g id="patch_17">
     <path d="M 257.123621 144.372696 
L 404.178621 144.372696 
L 404.178621 121.347696 
L 257.123621 121.347696 
z
" style="fill: #ffffff; stroke: #ffffff; stroke-linejoin: miter"/>
    </g>
    <!-- eBPF の機能の調査 -->
    <g transform="translate(261.123621 137.332696) scale(0.16 -0.16)">
     <defs>
      <path id="IPAexGothic-6a5f" d="M 3916 2125 
Q 3806 2984 3806 4238 
L 3806 5313 
L 4216 5313 
L 4216 4300 
Q 4216 3081 4300 2278 
L 4313 2150 
L 5175 2150 
Q 4984 2350 4822 2469 
L 5144 2669 
Q 5325 2541 5547 2309 
L 5309 2150 
L 6006 2150 
L 6006 1797 
L 4363 1797 
Q 4450 1278 4688 869 
Q 4931 1150 5194 1631 
L 5553 1431 
Q 5284 953 4913 531 
Q 4941 491 4959 475 
Q 5278 78 5438 78 
Q 5581 78 5669 844 
L 6066 628 
Q 5881 -422 5559 -422 
Q 5163 -422 4631 244 
Q 4069 -275 3384 -519 
L 3116 -191 
Q 3881 88 4406 569 
Q 4072 1116 3966 1772 
L 3084 1772 
Q 3078 1747 3078 1675 
Q 3078 1650 3063 1431 
Q 3534 1153 3934 781 
L 3684 441 
Q 3328 816 3031 1056 
Q 2906 91 2238 -494 
L 1950 -172 
Q 2478 241 2603 891 
Q 2659 1197 2681 1772 
L 2116 1772 
L 2116 2125 
L 3916 2125 
z
M 1113 2534 
Q 813 1522 384 794 
L 153 1250 
Q 763 2228 1063 3547 
L 294 3547 
L 294 3956 
L 1113 3956 
L 1113 5306 
L 1522 5306 
L 1522 3956 
L 2138 3956 
L 2138 3547 
L 1522 3547 
L 1522 2881 
Q 1875 2588 2150 2228 
L 1888 1884 
Q 1753 2144 1522 2434 
L 1522 -447 
L 1113 -447 
L 1113 2534 
z
M 2750 3334 
Q 2441 3850 2131 4159 
L 2347 4469 
Q 2384 4425 2509 4275 
Q 2734 4703 2913 5228 
L 3263 5025 
Q 3028 4447 2719 3988 
Q 2766 3919 2838 3803 
Q 2913 3684 2938 3647 
Q 3175 4066 3347 4434 
L 3666 4244 
Q 3263 3431 2809 2841 
Q 3097 2872 3347 2900 
Q 3347 2913 3334 2950 
Q 3313 3063 3231 3303 
L 3519 3372 
Q 3716 2891 3781 2413 
L 3456 2297 
Q 3453 2316 3428 2484 
Q 3416 2575 3403 2631 
Q 2906 2506 2175 2438 
L 2072 2797 
Q 2109 2800 2194 2803 
Q 2263 2806 2297 2809 
Q 2369 2809 2413 2816 
L 2438 2853 
Q 2538 2994 2750 3334 
z
M 4875 3413 
Q 4559 3916 4263 4206 
L 4478 4506 
Q 4494 4488 4559 4406 
Q 4609 4350 4641 4306 
Q 4891 4769 5038 5216 
L 5394 5013 
Q 5147 4466 4838 4025 
Q 4963 3844 5050 3700 
Q 5241 4019 5466 4469 
L 5784 4256 
Q 5497 3725 4991 3009 
Q 5356 3031 5547 3053 
Q 5466 3281 5381 3450 
L 5681 3553 
Q 5872 3181 6022 2669 
L 5709 2503 
Q 5697 2550 5663 2678 
Q 5641 2759 5631 2797 
Q 5019 2669 4434 2619 
L 4338 2975 
Q 4513 2975 4594 2981 
Q 4778 3256 4875 3413 
z
" transform="scale(0.015625)"/>
      <path id="IPAexGothic-80fd" d="M 888 3903 
Q 1228 4475 1509 5325 
L 1991 5203 
Q 1684 4497 1344 3941 
L 1325 3916 
L 1406 3916 
Q 1972 3928 2522 3966 
L 2584 3966 
Q 2438 4216 2181 4556 
L 2541 4753 
Q 3025 4141 3372 3475 
L 2988 3213 
Q 2909 3375 2775 3634 
Q 1938 3513 447 3456 
L 319 3897 
Q 613 3897 734 3903 
L 888 3903 
z
M 2963 3072 
L 2963 50 
Q 2963 -384 2413 -384 
Q 2100 -384 1822 -347 
L 1753 97 
Q 2091 38 2328 38 
Q 2534 38 2534 225 
L 2534 934 
L 1150 934 
L 1150 -447 
L 722 -447 
L 722 3072 
L 2963 3072 
z
M 1150 2688 
L 1150 2194 
L 2534 2194 
L 2534 2688 
L 1150 2688 
z
M 1150 1822 
L 1150 1306 
L 2534 1306 
L 2534 1822 
L 1150 1822 
z
M 3934 4153 
Q 4806 4444 5431 4872 
L 5803 4525 
Q 4866 4013 3934 3763 
L 3934 3206 
Q 3934 3022 4069 2981 
Q 4188 2950 4550 2950 
Q 5344 2950 5431 3116 
Q 5497 3234 5516 3828 
L 5963 3706 
Q 5934 2825 5719 2675 
Q 5522 2534 4594 2534 
Q 3897 2534 3678 2644 
Q 3494 2741 3494 3034 
L 3494 5209 
L 3934 5209 
L 3934 4153 
z
M 3934 1338 
Q 3947 1344 3984 1356 
Q 4816 1628 5472 2041 
L 5841 1684 
Q 4884 1203 3934 959 
L 3934 353 
Q 3934 131 4088 81 
Q 4203 38 4625 38 
Q 5228 38 5375 100 
Q 5556 188 5584 991 
L 6053 872 
Q 6025 203 5919 -44 
Q 5816 -281 5478 -341 
Q 5253 -384 4722 -384 
Q 3966 -384 3738 -294 
Q 3494 -197 3494 116 
L 3494 2338 
L 3934 2338 
L 3934 1338 
z
" transform="scale(0.015625)"/>
     </defs>
     <use xlink:href="#IPAexGothic-65"/>
     <use xlink:href="#IPAexGothic-42" x="56.884766"/>
     <use xlink:href="#IPAexGothic-50" x="122.802734"/>
     <use xlink:href="#IPAexGothic-46" x="184.912109"/>
     <use xlink:href="#IPAexGothic-20" x="242.089844"/>
     <use xlink:href="#IPAexGothic-306e" x="269.091797"/>
     <use xlink:href="#IPAexGothic-6a5f" x="369.091797"/>
     <use xlink:href="#IPAexGothic-80fd" x="469.091797"/>
     <use xlink:href="#IPAexGothic-306e" x="569.091797"/>
     <use xlink:href="#IPAexGothic-8abf" x="669.091797"/>
     <use xlink:href="#IPAexGothic-67fb" x="769.091797"/>
    </g>
   </g>
   <g id="text_8">
    <!-- 2月 -->
    <g transform="translate(176.89835 630.1029) scale(0.13 -0.13)">
     <defs>
      <path id="IPAexGothic-32" d="M 3659 63 
L 447 63 
L 447 594 
Q 825 1475 1894 2203 
L 2072 2322 
Q 2619 2697 2791 2906 
Q 2988 3153 2988 3444 
Q 2988 3772 2756 4003 
Q 2500 4259 2084 4259 
Q 1250 4259 991 3328 
L 497 3506 
Q 853 4725 2116 4725 
Q 2806 4725 3216 4316 
Q 3575 3947 3575 3425 
Q 3575 3038 3344 2722 
Q 3131 2416 2366 1938 
L 2231 1856 
Q 1256 1253 978 569 
L 3659 569 
L 3659 63 
z
" transform="scale(0.015625)"/>
      <path id="IPAexGothic-6708" d="M 5044 4984 
L 5044 256 
Q 5044 -78 4869 -203 
Q 4734 -300 4403 -300 
Q 3894 -300 3253 -247 
L 3169 244 
Q 3750 159 4294 159 
Q 4503 159 4547 263 
Q 4569 313 4569 438 
L 4569 1672 
L 1953 1672 
Q 1906 956 1716 475 
Q 1538 6 1116 -472 
L 744 -63 
Q 1259 475 1403 1244 
Q 1500 1772 1500 2650 
L 1500 4984 
L 5044 4984 
z
M 1981 4569 
L 1981 3541 
L 4569 3541 
L 4569 4569 
L 1981 4569 
z
M 1981 3144 
L 1981 2556 
Q 1981 2288 1975 2147 
L 1975 2069 
L 4569 2069 
L 4569 3144 
L 1981 3144 
z
" transform="scale(0.015625)"/>
     </defs>
     <use xlink:href="#IPAexGothic-32"/>
     <use xlink:href="#IPAexGothic-6708" x="62.988281"/>
    </g>
   </g>
   <g id="text_9">
    <!-- 3月 -->
    <g transform="translate(315.397962 630.1029) scale(0.13 -0.13)">
     <defs>
      <path id="IPAexGothic-33" d="M 2381 2419 
Q 3506 2216 3506 1278 
Q 3506 716 3128 356 
Q 2709 -31 1944 -31 
Q 797 -31 288 881 
L 756 1131 
Q 1109 441 1938 441 
Q 2425 441 2694 691 
Q 2950 928 2950 1291 
Q 2950 1719 2566 1978 
Q 2216 2213 1644 2213 
L 1363 2213 
L 1363 2669 
L 1656 2669 
Q 2231 2669 2534 2888 
Q 2859 3119 2859 3509 
Q 2859 3934 2494 4138 
Q 2259 4278 1931 4278 
Q 1238 4278 903 3578 
L 434 3803 
Q 897 4725 1938 4725 
Q 2597 4725 3006 4394 
Q 3416 4069 3416 3534 
Q 3416 3028 3019 2706 
Q 2763 2500 2381 2444 
L 2381 2419 
z
" transform="scale(0.015625)"/>
     </defs>
     <use xlink:href="#IPAexGothic-33"/>
     <use xlink:href="#IPAexGothic-6708" x="62.988281"/>
    </g>
   </g>
   <g id="text_10">
    <!-- 4月 -->
    <g transform="translate(459.832383 630.1029) scale(0.13 -0.13)">
     <defs>
      <path id="IPAexGothic-34" d="M 3813 1159 
L 3059 1159 
L 3059 63 
L 2547 63 
L 2547 1159 
L 197 1159 
L 197 1672 
L 2456 4678 
L 3059 4678 
L 3059 1634 
L 3813 1634 
L 3813 1159 
z
M 2578 4109 
L 2559 4109 
Q 2278 3656 2003 3284 
L 759 1634 
L 2547 1634 
L 2547 3144 
Q 2547 3481 2578 4109 
z
" transform="scale(0.015625)"/>
     </defs>
     <use xlink:href="#IPAexGothic-34"/>
     <use xlink:href="#IPAexGothic-6708" x="62.988281"/>
    </g>
   </g>
   <g id="text_11">
    <!-- 5月 -->
    <g transform="translate(599.60763 630.1029) scale(0.13 -0.13)">
     <defs>
      <path id="IPAexGothic-35" d="M 1178 2603 
Q 1634 2963 2172 2963 
Q 2816 2963 3241 2528 
Q 3638 2113 3638 1497 
Q 3638 938 3297 513 
Q 2869 -31 2031 -31 
Q 959 -31 469 784 
L 938 1028 
Q 1309 434 2013 434 
Q 2466 434 2769 716 
Q 3081 1013 3081 1503 
Q 3081 1966 2806 2241 
Q 2519 2528 2056 2528 
Q 1406 2528 1072 2028 
L 591 2091 
L 884 4634 
L 3406 4634 
L 3406 4153 
L 1341 4153 
L 1134 2603 
L 1178 2603 
z
" transform="scale(0.015625)"/>
     </defs>
     <use xlink:href="#IPAexGothic-35"/>
     <use xlink:href="#IPAexGothic-6708" x="62.988281"/>
    </g>
   </g>
   <g id="text_12">
    <!-- 6月 -->
    <g transform="translate(744.042051 630.1029) scale(0.13 -0.13)">
     <defs>
      <path id="IPAexGothic-36" d="M 1056 2328 
Q 1509 2981 2234 2981 
Q 2906 2981 3316 2513 
Q 3675 2106 3675 1522 
Q 3675 884 3272 434 
Q 2853 -31 2178 -31 
Q 1375 -31 922 581 
Q 481 1178 481 2228 
Q 481 3425 1013 4109 
Q 1494 4725 2272 4725 
Q 3191 4725 3609 4025 
L 3150 3775 
Q 2894 4266 2300 4266 
Q 1119 4266 1031 2328 
L 1056 2328 
z
M 2141 2547 
Q 1684 2547 1384 2206 
Q 1116 1900 1116 1541 
Q 1116 1156 1353 844 
Q 1672 428 2159 428 
Q 2669 428 2941 844 
Q 3125 1128 3125 1503 
Q 3125 1944 2881 2228 
Q 2600 2547 2141 2547 
z
" transform="scale(0.015625)"/>
     </defs>
     <use xlink:href="#IPAexGothic-36"/>
     <use xlink:href="#IPAexGothic-6708" x="62.988281"/>
    </g>
   </g>
   <g id="text_13">
    <!-- 7月 -->
    <g transform="translate(883.817298 630.1029) scale(0.13 -0.13)">
     <defs>
      <path id="IPAexGothic-37" d="M 3597 4263 
Q 2238 2106 1778 63 
L 1131 63 
Q 1581 1834 2950 4128 
L 428 4128 
L 428 4634 
L 3597 4634 
L 3597 4263 
z
" transform="scale(0.015625)"/>
     </defs>
     <use xlink:href="#IPAexGothic-37"/>
     <use xlink:href="#IPAexGothic-6708" x="62.988281"/>
    </g>
   </g>
   <g id="text_14">
    <!-- 8月 -->
    <g transform="translate(1028.25172 630.1029) scale(0.13 -0.13)">
     <defs>
      <path id="IPAexGothic-38" d="M 2541 2425 
Q 3700 2031 3700 1197 
Q 3700 541 3100 197 
Q 2663 -56 2016 -56 
Q 1366 -56 928 197 
Q 347 531 347 1178 
Q 347 1988 1409 2381 
L 1409 2400 
Q 481 2734 481 3509 
Q 481 4100 981 4456 
Q 1406 4756 2019 4756 
Q 2703 4756 3131 4403 
Q 3553 4069 3553 3566 
Q 3553 2706 2541 2444 
L 2541 2425 
z
M 2022 2625 
Q 2997 2856 2997 3528 
Q 2997 3916 2675 4150 
Q 2413 4347 2016 4347 
Q 1606 4347 1331 4128 
Q 1050 3897 1050 3522 
Q 1050 3150 1350 2925 
Q 1494 2809 1722 2722 
Q 1984 2616 2022 2625 
z
M 1978 2209 
Q 922 1931 922 1216 
Q 922 775 1313 556 
Q 1606 391 2009 391 
Q 2575 391 2881 697 
Q 3106 922 3106 1250 
Q 3106 1594 2794 1850 
Q 2609 1994 2350 2100 
Q 2047 2222 1978 2209 
z
" transform="scale(0.015625)"/>
     </defs>
     <use xlink:href="#IPAexGothic-38"/>
     <use xlink:href="#IPAexGothic-6708" x="62.988281"/>
    </g>
   </g>
  </g>
 </g>
 <defs>
  <clipPath id="p42154da52f">
   <rect x="167.58" y="93.744" width="1038.996" height="601.524"/>
  </clipPath>
 </defs>
</svg>
